<svg width="28" height="30" viewBox="0 0 28 30" fill="none" xmlns="http://www.w3.org/2000/svg">
<path d="M27.9999 10.0312V16.25C27.9999 16.5815 27.8658 16.8995 27.6272 17.1339C27.3885 17.3683 27.0648 17.5 26.7272 17.5C26.3897 17.5 26.066 17.3683 25.8273 17.1339C25.5886 16.8995 25.4545 16.5815 25.4545 16.25V11.25H17.8182C17.4806 11.25 17.1569 11.1183 16.9182 10.8839C16.6795 10.6494 16.5454 10.3315 16.5454 10V2.50001H2.54545V16.25C2.54545 16.5815 2.41136 16.8995 2.17268 17.1339C1.934 17.3683 1.61027 17.5 1.27272 17.5C0.935177 17.5 0.611456 17.3683 0.372773 17.1339C0.13409 16.8995 0 16.5815 0 16.25V2.50001C0 1.83697 0.268181 1.20109 0.745547 0.732252C1.22291 0.263412 1.87035 2.01407e-05 2.54545 2.01407e-05H17.8182C18.1568 -0.00185479 18.4825 0.127242 18.7249 0.359395L27.6182 9.10939C27.7402 9.22443 27.8371 9.36279 27.9028 9.51592C27.9684 9.6691 28.0015 9.83383 27.9999 10V10.0312ZM19.0909 8.75H23.6568L19.0909 4.26564V8.75Z" fill="#283C82"/>
<path d="M3.51367 19.9005H5.4978C6.01393 19.9005 6.45657 19.9484 6.8257 20.0441C7.19483 20.1398 7.52978 20.3192 7.83055 20.5824C8.61327 21.2523 9.00462 22.2709 9.00462 23.6381C9.00462 24.0893 8.96531 24.5012 8.88673 24.8737C8.8081 25.2463 8.68677 25.5829 8.52273 25.8837C8.35864 26.181 8.14847 26.4477 7.89209 26.6835C7.69043 26.8647 7.46999 27.0099 7.23071 27.1193C6.99148 27.2287 6.73342 27.3056 6.45657 27.35C6.1831 27.3944 5.87376 27.4167 5.52856 27.4167H3.54443C3.26758 27.4167 3.05908 27.3757 2.91895 27.2936C2.77881 27.2082 2.68652 27.0902 2.64209 26.9398C2.60107 26.786 2.58057 26.5878 2.58057 26.3451V20.8336C2.58057 20.5055 2.65405 20.268 2.80103 20.121C2.948 19.974 3.18555 19.9005 3.51367 19.9005ZM4.10327 21.1054V26.2067H5.25684C5.50976 26.2067 5.70801 26.1999 5.85153 26.1862C5.99509 26.1725 6.14378 26.1383 6.29761 26.0836C6.45143 26.029 6.58472 25.9521 6.69748 25.8529C7.20679 25.4223 7.46142 24.6806 7.46142 23.6279C7.46142 22.8861 7.34866 22.3307 7.12302 21.9616C6.90089 21.5924 6.62573 21.3583 6.29761 21.2592C5.96948 21.1567 5.573 21.1054 5.10816 21.1054H4.10327ZM14.0696 19.7724C14.849 19.7724 15.5172 19.9313 16.0743 20.2492C16.6349 20.5637 17.0586 21.0131 17.3458 21.5976C17.6329 22.1786 17.7764 22.8622 17.7764 23.6483C17.7764 24.2294 17.6978 24.7575 17.5406 25.2326C17.3834 25.7077 17.1475 26.1196 16.8331 26.4682C16.5187 26.8168 16.1324 27.0834 15.6744 27.268C15.2164 27.4525 14.6917 27.5448 14.1004 27.5448C13.5125 27.5448 12.9862 27.4508 12.5213 27.2628C12.0564 27.0714 11.6685 26.8031 11.3575 26.4579C11.0465 26.1127 10.8106 25.6974 10.65 25.2121C10.4928 24.7267 10.4141 24.2021 10.4141 23.6381C10.4141 23.0604 10.4961 22.5307 10.6602 22.0488C10.8277 21.5668 11.0687 21.1567 11.3831 20.8183C11.6976 20.4799 12.0804 20.2218 12.5316 20.0441C12.9827 19.863 13.4954 19.7724 14.0696 19.7724ZM16.2332 23.6381C16.2332 23.0878 16.1444 22.611 15.9666 22.2077C15.7889 21.8044 15.5343 21.5001 15.2027 21.2951C14.8746 21.0866 14.4969 20.9823 14.0696 20.9823C13.7654 20.9823 13.4835 21.0404 13.2237 21.1567C12.9674 21.2694 12.7452 21.4352 12.5572 21.654C12.3726 21.8727 12.2257 22.153 12.1163 22.4948C12.0103 22.8332 11.9573 23.2143 11.9573 23.6381C11.9573 24.0654 12.0103 24.4516 12.1163 24.7968C12.2257 25.142 12.3777 25.4291 12.5726 25.6581C12.7709 25.8837 12.9964 26.0529 13.2494 26.1657C13.5057 26.2785 13.786 26.3349 14.0902 26.3349C14.4798 26.3349 14.837 26.2375 15.1617 26.0426C15.4898 25.8478 15.7496 25.547 15.941 25.1403C16.1358 24.7336 16.2332 24.2328 16.2332 23.6381ZM25.9023 25.0429C25.9023 25.2821 25.8424 25.5419 25.7228 25.8222C25.6066 26.099 25.422 26.3725 25.1691 26.6425C24.9161 26.9091 24.5932 27.1262 24.2001 27.2936C23.8071 27.4611 23.349 27.5448 22.8261 27.5448C22.4296 27.5448 22.069 27.5073 21.7443 27.4321C21.4196 27.3569 21.124 27.2406 20.8573 27.0834C20.5942 26.9228 20.3514 26.7126 20.1293 26.4528C19.931 26.217 19.7619 25.9538 19.6218 25.6632C19.4816 25.3693 19.3756 25.0566 19.3038 24.725C19.2355 24.3935 19.2013 24.0414 19.2013 23.6689C19.2013 23.0639 19.2885 22.5221 19.4628 22.0436C19.6405 21.5651 19.8935 21.1567 20.2216 20.8183C20.5497 20.4765 20.9343 20.2167 21.3751 20.039C21.8161 19.8613 22.286 19.7724 22.7851 19.7724C23.3935 19.7724 23.9352 19.8937 24.4103 20.1364C24.8854 20.379 25.2494 20.6799 25.5023 21.0387C25.7553 21.3942 25.8817 21.7309 25.8817 22.0488C25.8817 22.2231 25.8202 22.3769 25.6972 22.5102C25.5741 22.6435 25.4255 22.7101 25.2512 22.7101C25.0563 22.7101 24.9093 22.664 24.8102 22.5717C24.7145 22.4794 24.6069 22.3205 24.4872 22.0949C24.2889 21.7223 24.0549 21.4437 23.7848 21.2592C23.5182 21.0746 23.1884 20.9823 22.7953 20.9823C22.1698 20.9823 21.6708 21.2199 21.2983 21.695C20.9291 22.1701 20.7446 22.8451 20.7446 23.7201C20.7446 24.3046 20.8266 24.7917 20.9906 25.1813C21.1547 25.5676 21.3871 25.8564 21.6879 26.0478C21.9887 26.2391 22.3407 26.3349 22.744 26.3349C23.1815 26.3349 23.5507 26.2272 23.8514 26.0119C24.1557 25.7931 24.3847 25.4735 24.5385 25.0531C24.6034 24.8549 24.6837 24.6942 24.7795 24.5712C24.8751 24.4448 25.029 24.3815 25.2409 24.3815C25.422 24.3815 25.5775 24.4448 25.7074 24.5712C25.8373 24.6977 25.9023 24.8549 25.9023 25.0429Z" fill="#283C82"/>
<path d="M7.83053 20.5825L7.6385 20.802L7.64089 20.804L7.83053 20.5825ZM8.52271 25.8837L8.77804 26.0246L8.77874 26.0234L8.52271 25.8837ZM7.89207 26.6835L8.08702 26.9005L8.08953 26.8981L7.89207 26.6835ZM6.45655 27.35L6.41029 27.0621L6.40976 27.0621L6.45655 27.35ZM2.91893 27.2936L2.76706 27.5427L2.77158 27.5454L2.91893 27.2936ZM2.64207 26.9399L2.36015 27.015L2.36236 27.0225L2.64207 26.9399ZM4.10325 21.1054V20.8137H3.81158V21.1054H4.10325ZM4.10325 26.2067H3.81158V26.4984H4.10325V26.2067ZM6.69746 25.8529L6.5091 25.6302L6.50496 25.6339L6.69746 25.8529ZM7.123 21.9616L6.8731 22.112L6.87415 22.1137L7.123 21.9616ZM6.29759 21.2592L6.21061 21.5376L6.21324 21.5384L6.29759 21.2592ZM3.51365 20.1922H5.49778V19.6089H3.51365V20.1922ZM5.49778 20.1922C5.99729 20.1922 6.41396 20.2387 6.75247 20.3264L6.89889 19.7618C6.49907 19.6582 6.03054 19.6089 5.49778 19.6089V20.1922ZM6.75247 20.3264C7.07552 20.4102 7.37022 20.5672 7.6385 20.802L8.02262 20.3629C7.6893 20.0713 7.3141 19.8694 6.89889 19.7618L6.75247 20.3264ZM7.64089 20.804C8.33931 21.4018 8.71294 22.3266 8.71294 23.6381H9.29627C9.29627 22.2153 8.88718 21.1029 8.02023 20.3608L7.64089 20.804ZM8.71294 23.6381C8.71294 24.0727 8.67508 24.464 8.60129 24.8135L9.17208 24.9339C9.25555 24.5383 9.29627 24.1059 9.29627 23.6381H8.71294ZM8.60129 24.8135C8.5279 25.1613 8.41567 25.4708 8.26663 25.744L8.77874 26.0234C8.95782 25.6951 9.08825 25.3312 9.17208 24.9339L8.60129 24.8135ZM8.26733 25.7428C8.11881 26.0119 7.92841 26.2538 7.69461 26.4689L8.08953 26.8981C8.36842 26.6416 8.59843 26.3502 8.77804 26.0246L8.26733 25.7428ZM7.69718 26.4665C7.51681 26.6286 7.32105 26.7573 7.10941 26.854L7.35196 27.3846C7.6189 27.2626 7.86401 27.1008 8.08696 26.9005L7.69718 26.4665ZM7.10941 26.854C6.89556 26.9518 6.66293 27.0215 6.41029 27.0621L6.50275 27.638C6.8038 27.5897 7.0873 27.5056 7.35196 27.3846L7.10941 26.854ZM6.40976 27.0621C6.15496 27.1035 5.86172 27.125 5.52854 27.125V27.7083C5.88581 27.7083 6.2112 27.6854 6.50333 27.6379L6.40976 27.0621ZM5.52854 27.125H3.54441V27.7083H5.52854V27.125ZM3.54441 27.125C3.28725 27.125 3.14038 27.0853 3.06627 27.0419L2.77158 27.5454C2.97774 27.666 3.24787 27.7083 3.54441 27.7083V27.125ZM3.07077 27.0446C2.98926 26.9949 2.94469 26.9347 2.92178 26.8572L2.36236 27.0225C2.42832 27.2458 2.56832 27.4215 2.76708 27.5427L3.07077 27.0446ZM2.92388 26.8647C2.89187 26.7447 2.87221 26.5742 2.87221 26.3451H2.28888C2.28888 26.6014 2.31023 26.8274 2.36025 27.015L2.92388 26.8647ZM2.87221 26.3451V20.8336H2.28888V26.3451H2.87221ZM2.87221 20.8336C2.87221 20.5396 2.93943 20.3951 3.00724 20.3272L2.59476 19.9148C2.36863 20.1409 2.28888 20.4715 2.28888 20.8336H2.87221ZM3.00724 20.3272C3.07506 20.2595 3.21956 20.1922 3.51365 20.1922V19.6089C3.15149 19.6089 2.8209 19.6887 2.59476 19.9148L3.00724 20.3272ZM3.81158 21.1054V26.2067H4.39492V21.1054H3.81158ZM4.10325 26.4984H5.25682V25.9151H4.10325V26.4984ZM5.25682 26.4984C5.51322 26.4984 5.7221 26.4915 5.87922 26.4766L5.82389 25.8959C5.69388 25.9082 5.50627 25.9151 5.25682 25.9151V26.4984ZM5.87922 26.4766C6.04955 26.4604 6.22181 26.4202 6.3953 26.3585L6.19988 25.8088C6.06577 25.8565 5.94065 25.8847 5.82389 25.8959L5.87922 26.4766ZM6.3953 26.3585C6.58091 26.2925 6.7471 26.1976 6.89002 26.072L6.50496 25.6339C6.4223 25.7065 6.32185 25.7655 6.19988 25.8088L6.3953 26.3585ZM6.88582 26.0756C7.49074 25.5641 7.75306 24.7171 7.75306 23.6279H7.16973C7.16973 24.6441 6.9228 25.2804 6.50916 25.6302L6.88582 26.0756ZM7.75306 23.6279C7.75306 22.8663 7.63896 22.2465 7.37191 21.8095L6.87415 22.1137C7.05825 22.4149 7.16973 22.906 7.16973 23.6279H7.75306ZM7.3729 21.8112C7.12341 21.3966 6.79581 21.105 6.38194 20.98L6.21324 21.5384C6.45561 21.6116 6.67833 21.7883 6.8731 22.112L7.3729 21.8112ZM6.38456 20.9808C6.02039 20.867 5.59282 20.8137 5.10814 20.8137V21.3971C5.55313 21.3971 5.91854 21.4463 6.21061 21.5376L6.38456 20.9808ZM5.10814 20.8137H4.10325V21.3971H5.10814V20.8137ZM16.0743 20.2492L15.9297 20.5025L15.9316 20.5036L16.0743 20.2492ZM17.3457 21.5976L17.0839 21.7262L17.0843 21.7268L17.3457 21.5976ZM12.5213 27.2628L12.4102 27.5326L12.412 27.5333L12.5213 27.2628ZM10.65 25.2121L10.3725 25.302L10.373 25.3037L10.65 25.2121ZM10.6602 22.0488L10.3847 21.953L10.3841 21.9547L10.6602 22.0488ZM12.5316 20.0441L12.6385 20.3155L12.6402 20.3148L12.5316 20.0441ZM15.2027 21.2951L15.0462 21.5413L15.0493 21.5431L15.2027 21.2951ZM13.2237 21.1567L13.3412 21.4236L13.3428 21.4229L13.2237 21.1567ZM12.5572 21.654L12.336 21.4639L12.3343 21.4659L12.5572 21.654ZM12.1163 22.4948L11.8385 22.4059L11.8379 22.4076L12.1163 22.4948ZM12.1163 24.7968L11.8374 24.8824L11.8382 24.8849L12.1163 24.7968ZM12.5726 25.6582L12.3504 25.8472L12.3535 25.8507L12.5726 25.6582ZM13.2493 26.1657L13.1305 26.4321L13.1319 26.4326L13.2493 26.1657ZM15.1617 26.0426L15.0128 25.7919L15.0116 25.7926L15.1617 26.0426ZM15.941 25.1403L15.6779 25.0143L15.6771 25.0161L15.941 25.1403ZM14.0696 20.064C14.8091 20.064 15.4252 20.2147 15.9298 20.5025L16.2188 19.9959C15.6091 19.648 14.8887 19.4807 14.0696 19.4807V20.064ZM15.9316 20.5036C16.4399 20.7887 16.8226 21.194 17.0839 21.7262L17.6075 21.469C17.2948 20.8322 16.8297 20.3386 16.217 19.9948L15.9316 20.5036ZM17.0843 21.7268C17.3477 22.26 17.4848 22.8976 17.4848 23.6483H18.0681C18.0681 22.8268 17.918 22.0973 17.6073 21.4684L17.0843 21.7268ZM17.4848 23.6483C17.4848 24.2032 17.4097 24.6997 17.2637 25.141L17.8175 25.3242C17.9859 24.8152 18.0681 24.2556 18.0681 23.6483H17.4848ZM17.2637 25.141C17.1183 25.5802 16.9021 25.9562 16.6165 26.2728L17.0496 26.6635C17.3929 26.283 17.6484 25.8351 17.8175 25.3242L17.2637 25.141ZM16.6165 26.2728C16.3333 26.5869 15.9844 26.8286 15.5654 26.9975L15.7834 27.5385C16.2803 27.3383 16.704 27.0468 17.0496 26.6635L16.6165 26.2728ZM15.5654 26.9975C15.1481 27.1656 14.6615 27.2532 14.1004 27.2532V27.8365C14.7219 27.8365 15.2846 27.7395 15.7834 27.5385L15.5654 26.9975ZM14.1004 27.2532C13.5436 27.2532 13.0553 27.1642 12.6307 26.9925L12.412 27.5333C12.917 27.7375 13.4814 27.8365 14.1004 27.8365V27.2532ZM12.6324 26.9932C12.2045 26.817 11.8537 26.5729 11.5742 26.2627L11.1408 26.6531C11.4834 27.0334 11.9084 27.3259 12.4102 27.5326L12.6324 26.9932ZM11.5742 26.2627C11.2927 25.9503 11.0761 25.5714 10.9269 25.1204L10.373 25.3037C10.5451 25.8235 10.8002 26.2751 11.1408 26.6531L11.5742 26.2627ZM10.9274 25.1222C10.7806 24.6688 10.7058 24.1747 10.7058 23.6381H10.1224C10.1224 24.2294 10.2049 24.7847 10.3725 25.302L10.9274 25.1222ZM10.7058 23.6381C10.7058 23.0882 10.7838 22.5906 10.9363 22.1428L10.3841 21.9547C10.2084 22.4707 10.1224 23.0327 10.1224 23.6381H10.7058ZM10.9357 22.1445C11.0913 21.6967 11.3126 21.3226 11.5968 21.0168L11.1695 20.6197C10.8247 20.9907 10.5641 21.4369 10.3847 21.953L10.9357 22.1445ZM11.5968 21.0168C11.88 20.712 12.2258 20.478 12.6385 20.3155L12.4246 19.7727C11.935 19.9656 11.5151 20.2478 11.1695 20.6197L11.5968 21.0168ZM12.6402 20.3148C13.0512 20.1498 13.526 20.064 14.0696 20.064V19.4807C13.4648 19.4807 12.9143 19.5761 12.4229 19.7734L12.6402 20.3148ZM16.5249 23.6381C16.5249 23.0571 16.4311 22.5384 16.2335 22.0901L15.6997 22.3253C15.8576 22.6836 15.9415 23.1186 15.9415 23.6381H16.5249ZM16.2335 22.0901C16.0352 21.6401 15.7442 21.2871 15.3561 21.047L15.0493 21.5431C15.3243 21.7132 15.5425 21.9686 15.6997 22.3253L16.2335 22.0901ZM15.3591 21.0489C14.9796 20.8078 14.5466 20.6907 14.0696 20.6907V21.274C14.4472 21.274 14.7695 21.3654 15.0462 21.5413L15.3591 21.0489ZM14.0696 20.6907C13.7273 20.6907 13.4043 20.7563 13.1046 20.8904L13.3428 21.4229C13.5625 21.3246 13.8036 21.274 14.0696 21.274V20.6907ZM13.1062 20.8897C12.8088 21.0206 12.5515 21.2131 12.336 21.4639L12.7784 21.8441C12.9388 21.6574 13.1259 21.5184 13.3412 21.4236L13.1062 20.8897ZM12.3343 21.4659C12.1197 21.7202 11.9566 22.0366 11.8385 22.4059L12.3941 22.5837C12.4946 22.2693 12.6255 22.0253 12.7801 21.842L12.3343 21.4659ZM11.8379 22.4076C11.7216 22.7791 11.6657 23.1903 11.6657 23.6381H12.249C12.249 23.2383 12.299 22.8873 12.3946 22.5819L11.8379 22.4076ZM11.6657 23.6381C11.6657 24.0892 11.7216 24.5049 11.8374 24.8824L12.3951 24.7112C12.299 24.3983 12.249 24.0415 12.249 23.6381H11.6657ZM11.8382 24.8849C11.957 25.2597 12.1258 25.5831 12.3504 25.8471L12.7947 25.4692C12.6296 25.2751 12.4943 25.0243 12.3943 24.7087L11.8382 24.8849ZM12.3535 25.8507C12.5771 26.1051 12.8361 26.3008 13.1305 26.4321L13.3681 25.8993C13.1567 25.805 12.9646 25.6624 12.7917 25.4656L12.3535 25.8507ZM13.1319 26.4326C13.4283 26.5631 13.749 26.6265 14.0902 26.6265V26.0432C13.8229 26.0432 13.583 25.9939 13.3668 25.8987L13.1319 26.4326ZM14.0902 26.6265C14.531 26.6265 14.9404 26.5156 15.3117 26.2928L15.0116 25.7926C14.7336 25.9593 14.4286 26.0432 14.0902 26.0432V26.6265ZM15.3106 26.2935C15.6972 26.0639 15.9932 25.7144 16.2049 25.2645L15.6771 25.0161C15.506 25.3797 15.2824 25.6318 15.0128 25.7919L15.3106 26.2935ZM16.204 25.2663C16.4227 24.8098 16.5249 24.2632 16.5249 23.6381H15.9415C15.9415 24.2025 15.8489 24.6573 15.6779 25.0143L16.204 25.2663ZM25.7228 25.8222L25.4545 25.7077L25.4538 25.7093L25.7228 25.8222ZM25.1691 26.6425L25.3807 26.8433L25.3819 26.8419L25.1691 26.6425ZM20.8573 27.0834L20.7053 27.3324L20.7091 27.3347L20.8573 27.0834ZM20.1293 26.4528L19.906 26.6405L19.9076 26.6424L20.1293 26.4528ZM19.6217 25.6632L19.3584 25.7888L19.359 25.79L19.6217 25.6632ZM19.3038 24.725L19.0182 24.7839L19.0188 24.7867L19.3038 24.725ZM19.4628 22.0436L19.1894 21.9421L19.1887 21.9438L19.4628 22.0436ZM20.2216 20.8183L20.4309 21.0214L20.432 21.0202L20.2216 20.8183ZM25.5023 21.0387L25.2639 21.2067L25.2647 21.2078L25.5023 21.0387ZM24.8102 22.5717L24.6077 22.7817L24.6115 22.7852L24.8102 22.5717ZM24.4872 22.0949L24.7449 21.9582L24.7447 21.9579L24.4872 22.0949ZM23.7848 21.2592L23.6188 21.499L23.6202 21.5L23.7848 21.2592ZM21.2982 21.695L21.0687 21.515L21.0679 21.516L21.2982 21.695ZM20.9906 25.1813L20.7218 25.2945L20.7221 25.2954L20.9906 25.1813ZM23.8514 26.0119L24.0212 26.2491L24.0218 26.2487L23.8514 26.0119ZM24.5385 25.0531L24.8124 25.1533L24.8141 25.1487L24.8156 25.1439L24.5385 25.0531ZM24.7795 24.5712L25.0097 24.7503L25.012 24.7472L24.7795 24.5712ZM25.6106 25.0429C25.6106 25.2336 25.5628 25.4541 25.4545 25.7077L25.991 25.9367C26.1221 25.6297 26.1939 25.3307 26.1939 25.0429H25.6106ZM25.4538 25.7093C25.3537 25.9478 25.1908 26.1927 24.9562 26.4431L25.3819 26.8419C25.6532 26.5523 25.8594 26.2503 25.9917 25.9351L25.4538 25.7093ZM24.9575 26.4417C24.7361 26.6751 24.448 26.871 24.0858 27.0253L24.3144 27.5619C24.7383 27.3813 25.0962 27.1431 25.3807 26.8433L24.9575 26.4417ZM24.0858 27.0253C23.736 27.1744 23.3183 27.2532 22.826 27.2532V27.8365C23.3797 27.8365 23.8781 27.7479 24.3144 27.5619L24.0858 27.0253ZM22.826 27.2532C22.4477 27.2532 22.1096 27.2173 21.8101 27.1479L21.6785 27.7162C22.0284 27.7972 22.4115 27.8365 22.826 27.8365V27.2532ZM21.8101 27.1479C21.5121 27.0789 21.2446 26.9732 21.0055 26.8322L20.7091 27.3347C21.0032 27.5081 21.327 27.6348 21.6785 27.7162L21.8101 27.1479ZM21.0093 26.8344C20.775 26.6915 20.5553 26.5022 20.351 26.2632L19.9076 26.6424C20.1476 26.923 20.4133 27.1541 20.7053 27.3324L21.0093 26.8344ZM20.3525 26.2651C20.1707 26.0488 20.0145 25.8062 19.8844 25.5365L19.359 25.79C19.5092 26.1014 19.6914 26.3852 19.906 26.6405L20.3525 26.2651ZM19.885 25.5378C19.755 25.265 19.6561 24.9737 19.5889 24.6633L19.0188 24.7867C19.0952 25.1394 19.2082 25.4736 19.3584 25.7888L19.885 25.5378ZM19.5895 24.6661C19.5255 24.3558 19.493 24.0236 19.493 23.6689H18.9097C18.9097 24.0592 18.9455 24.4312 19.0182 24.7839L19.5895 24.6661ZM19.493 23.6689C19.493 23.0917 19.5761 22.5846 19.7368 22.1435L19.1887 21.9438C19.0008 22.4597 18.9097 23.0361 18.9097 23.6689H19.493ZM19.7362 22.1452C19.901 21.7014 20.1333 21.3284 20.4309 21.0213L20.0122 20.6152C19.6536 20.985 19.38 21.4288 19.1894 21.9421L19.7362 22.1452ZM20.432 21.0202C20.7314 20.7083 21.0814 20.4719 21.4842 20.3095L21.2661 19.7685C20.7871 19.9616 20.3679 20.2446 20.0112 20.6163L20.432 21.0202ZM21.4842 20.3095C21.8887 20.1464 22.3215 20.064 22.785 20.064V19.4807C22.2505 19.4807 21.7434 19.5761 21.2661 19.7685L21.4842 20.3095ZM22.785 20.064C23.3538 20.064 23.849 20.1772 24.2776 20.3961L24.543 19.8767C24.0214 19.6102 23.4331 19.4807 22.785 19.4807V20.064ZM24.2776 20.3961C24.7195 20.6219 25.0435 20.8941 25.2639 21.2067L25.7407 20.8707C25.4552 20.4657 25.0512 20.1363 24.543 19.8767L24.2776 20.3961ZM25.2647 21.2078C25.4953 21.5319 25.5901 21.8103 25.5901 22.0488H26.1734C26.1734 21.6514 26.0152 21.2566 25.74 20.8696L25.2647 21.2078ZM25.5901 22.0488C25.5901 22.1465 25.5584 22.2305 25.4828 22.3123L25.9115 22.708C26.082 22.5233 26.1734 22.2996 26.1734 22.0488H25.5901ZM25.4828 22.3123C25.4125 22.3886 25.3403 22.4184 25.2511 22.4184V23.0018C25.5105 23.0018 25.7358 22.8983 25.9115 22.708L25.4828 22.3123ZM25.2511 22.4184C25.0979 22.4184 25.0344 22.382 25.0089 22.3582L24.6115 22.7852C24.7842 22.946 25.0147 23.0018 25.2511 23.0018V22.4184ZM25.0127 22.3617C24.9511 22.3024 24.8608 22.1768 24.7449 21.9582L24.2295 22.2315C24.3529 22.4641 24.4779 22.6564 24.6077 22.7817L25.0127 22.3617ZM24.7447 21.9579C24.5305 21.5555 24.2679 21.2361 23.9494 21.0184L23.6202 21.5C23.8417 21.6514 24.0474 21.8892 24.2297 22.2319L24.7447 21.9579ZM23.9508 21.0194C23.6259 20.7944 23.2349 20.6907 22.7953 20.6907V21.274C23.1418 21.274 23.4105 21.3548 23.6188 21.499L23.9508 21.0194ZM22.7953 20.6907C22.084 20.6907 21.4988 20.9665 21.0687 21.515L21.5277 21.8749C21.8427 21.4733 22.2557 21.274 22.7953 21.274V20.6907ZM21.0679 21.516C20.6445 22.061 20.4529 22.8087 20.4529 23.7201H21.0362C21.0362 22.8815 21.2137 22.2792 21.5285 21.874L21.0679 21.516ZM20.4529 23.7201C20.4529 24.3296 20.5381 24.8581 20.7218 25.2945L21.2594 25.0681C21.115 24.7252 21.0362 24.2796 21.0362 23.7201H20.4529ZM20.7221 25.2954C20.9051 25.7261 21.1724 26.0654 21.5313 26.2939L21.8445 25.8017C21.6018 25.6473 21.4042 25.4091 21.259 25.0673L20.7221 25.2954ZM21.5313 26.2939C21.8848 26.5188 22.2927 26.6265 22.744 26.6265V26.0432C22.3887 26.0432 22.0925 25.9596 21.8445 25.8017L21.5313 26.2939ZM22.744 26.6265C23.231 26.6265 23.6624 26.506 24.0212 26.2491L23.6817 25.7747C23.439 25.9485 23.1321 26.0432 22.744 26.0432V26.6265ZM24.0218 26.2487C24.382 25.9896 24.6425 25.6178 24.8124 25.1533L24.2645 24.953C24.1268 25.3293 23.9293 25.5967 23.6812 25.7751L24.0218 26.2487ZM24.8156 25.1439C24.8734 24.9675 24.9402 24.8396 25.0096 24.7503L24.5492 24.3921C24.4272 24.5489 24.3334 24.7423 24.2613 24.9624L24.8156 25.1439ZM25.012 24.7472C25.0352 24.7165 25.087 24.6732 25.2409 24.6732V24.0899C24.9708 24.0899 24.7151 24.1729 24.5469 24.3952L25.012 24.7472ZM25.2409 24.6732C25.3459 24.6732 25.4285 24.7067 25.504 24.7802L25.9109 24.3622C25.7266 24.1828 25.4981 24.0899 25.2409 24.0899V24.6732ZM25.504 24.7802C25.5751 24.8495 25.6106 24.9303 25.6106 25.0429H26.1939C26.1939 24.7795 26.0995 24.5459 25.9109 24.3622L25.504 24.7802Z" fill="#283C82"/>
</svg>
