<svg width="28" height="30" viewBox="0 0 28 30" fill="none" xmlns="http://www.w3.org/2000/svg">
<g clip-path="url(#clip0_24_275)">
<path d="M27.9999 10.0312V16.25C27.9999 16.5815 27.8658 16.8995 27.6272 17.1339C27.3885 17.3683 27.0648 17.5 26.7272 17.5C26.3897 17.5 26.066 17.3683 25.8273 17.1339C25.5886 16.8995 25.4545 16.5815 25.4545 16.25V11.25H17.8182C17.4806 11.25 17.1569 11.1183 16.9182 10.8839C16.6795 10.6494 16.5454 10.3315 16.5454 10V2.50001H2.54545V16.25C2.54545 16.5815 2.41136 16.8995 2.17268 17.1339C1.934 17.3683 1.61027 17.5 1.27272 17.5C0.935177 17.5 0.611456 17.3683 0.372773 17.1339C0.13409 16.8995 0 16.5815 0 16.25V2.50001C0 1.83697 0.268181 1.20109 0.745547 0.732252C1.22291 0.263412 1.87035 2.01407e-05 2.54545 2.01407e-05H17.8182C18.1568 -0.00185479 18.4825 0.127242 18.7249 0.359395L27.6182 9.10939C27.7402 9.22443 27.8371 9.36279 27.9028 9.51592C27.9684 9.6691 28.0015 9.83383 27.9999 10V10.0312ZM19.0909 8.75H23.6568L19.0909 4.26564V8.75Z" fill="#20744A"/>
<path d="M4.62677 25.9555L6.30844 23.4997L4.89337 21.3156C4.76007 21.1037 4.65924 20.9226 4.59088 20.7722C4.52594 20.6184 4.49347 20.4714 4.49347 20.3312C4.49347 20.1877 4.5567 20.0595 4.68317 19.9467C4.81305 19.8305 4.97028 19.7724 5.15484 19.7724C5.36676 19.7724 5.53083 19.8356 5.64703 19.9621C5.76666 20.0851 5.93073 20.3158 6.13921 20.6542L7.26715 22.4794L8.47196 20.6542C8.57113 20.5005 8.65484 20.3689 8.7232 20.2595C8.79495 20.1501 8.86332 20.0595 8.9283 19.9877C8.99323 19.916 9.06498 19.863 9.14361 19.8288C9.22563 19.7912 9.31966 19.7724 9.4256 19.7724C9.61699 19.7724 9.7725 19.8305 9.89215 19.9467C10.0152 20.0595 10.0767 20.1945 10.0767 20.3518C10.0767 20.5807 9.94511 20.8918 9.68197 21.2849L8.20025 23.4997L9.79473 25.9555C9.93829 26.1709 10.0425 26.3503 10.1075 26.4939C10.1724 26.634 10.2049 26.7673 10.2049 26.8937C10.2049 27.0134 10.1758 27.1228 10.1177 27.2219C10.0596 27.321 9.9776 27.3996 9.87167 27.4577C9.76568 27.5158 9.64604 27.5449 9.51275 27.5449C9.36919 27.5449 9.24785 27.5141 9.14875 27.4526C9.04964 27.3945 8.96931 27.321 8.90777 27.2321C8.84623 27.1432 8.73178 26.9707 8.56425 26.7143L7.24154 24.6327L5.83675 26.7758C5.72736 26.9467 5.64874 27.0663 5.60089 27.1347C5.55646 27.2031 5.50177 27.2697 5.43683 27.3347C5.37188 27.3996 5.29498 27.4509 5.20611 27.4884C5.11725 27.5261 5.013 27.5449 4.89337 27.5449C4.7088 27.5449 4.55499 27.4884 4.43195 27.3757C4.31232 27.2629 4.2525 27.0988 4.2525 26.8835C4.2525 26.6305 4.37726 26.3212 4.62677 25.9555ZM13.1627 20.6952V26.1657H16.2491C16.4952 26.1657 16.6833 26.2255 16.8131 26.3452C16.9465 26.4648 17.0131 26.6152 17.0131 26.7963C17.0131 26.9809 16.9481 27.1313 16.8182 27.2475C16.6884 27.3603 16.4987 27.4167 16.2491 27.4167H12.5731C12.2416 27.4167 12.0024 27.3432 11.8554 27.1963C11.7118 27.0493 11.64 26.8117 11.64 26.4836V20.6952C11.64 20.3876 11.7084 20.1569 11.8451 20.0031C11.9853 19.8493 12.1681 19.7724 12.3937 19.7724C12.6227 19.7724 12.8073 19.8493 12.9474 20.0031C13.091 20.1535 13.1627 20.3842 13.1627 20.6952ZM23.7495 25.1608C23.7495 25.6154 23.6316 26.0239 23.3957 26.3862C23.1633 26.7485 22.8215 27.0322 22.3703 27.2373C21.9191 27.4423 21.3843 27.5449 20.7656 27.5449C20.0239 27.5449 19.4121 27.4047 18.9301 27.1244C18.5884 26.9228 18.3098 26.6545 18.0945 26.3195C17.8825 25.9812 17.7766 25.653 17.7766 25.3351C17.7766 25.1506 17.8398 24.9934 17.9663 24.8634C18.0961 24.7302 18.2602 24.6635 18.4585 24.6635C18.6191 24.6635 18.7541 24.7148 18.8635 24.8173C18.9763 24.9198 19.072 25.072 19.1506 25.2736C19.2463 25.5129 19.3489 25.7128 19.4582 25.8735C19.571 26.0341 19.7283 26.1674 19.9299 26.2734C20.1316 26.3759 20.3965 26.4272 20.7246 26.4272C21.1757 26.4272 21.5415 26.3229 21.8218 26.1145C22.1055 25.9025 22.2473 25.6393 22.2473 25.3249C22.2473 25.0754 22.1704 24.8737 22.0166 24.7199C21.8662 24.5627 21.6696 24.443 21.427 24.361C21.1877 24.279 20.8665 24.1918 20.4631 24.0996C19.9231 23.9731 19.4702 23.8261 19.1044 23.6586C18.7422 23.4877 18.4533 23.257 18.238 22.9665C18.0261 22.6726 17.9202 22.3086 17.9202 21.8744C17.9202 21.4609 18.0329 21.0935 18.2585 20.7722C18.4841 20.4509 18.8105 20.2048 19.2378 20.0339C19.665 19.8595 20.1674 19.7724 20.7451 19.7724C21.2065 19.7724 21.6047 19.8305 21.9397 19.9467C22.2781 20.0595 22.5583 20.2116 22.7805 20.403C23.0027 20.591 23.165 20.7893 23.2676 20.9978C23.3701 21.2062 23.4213 21.4096 23.4213 21.6079C23.4213 21.789 23.3564 21.9531 23.2266 22.1C23.1001 22.2436 22.9411 22.3154 22.7497 22.3154C22.5754 22.3154 22.4421 22.2726 22.3498 22.1872C22.261 22.0983 22.1636 21.9548 22.0576 21.7566C21.9209 21.4728 21.7568 21.2524 21.5654 21.0952C21.374 20.9345 21.0664 20.8542 20.6426 20.8542C20.2495 20.8542 19.9316 20.9413 19.6889 21.1156C19.4497 21.2866 19.3301 21.4933 19.3301 21.736C19.3301 21.8864 19.3711 22.0163 19.4531 22.1257C19.5351 22.2351 19.6479 22.329 19.7915 22.4077C19.935 22.4863 20.0803 22.5478 20.2273 22.5922C20.3742 22.6367 20.6169 22.7016 20.9553 22.7871C21.3791 22.8862 21.7619 22.9955 22.1037 23.1152C22.4489 23.2348 22.7412 23.3801 22.9805 23.5509C23.2231 23.7219 23.4111 23.9389 23.5444 24.2021C23.6812 24.4619 23.7495 24.7814 23.7495 25.1608Z" fill="#20744A"/>
<path d="M4.62681 25.9555L4.38616 25.7907L4.38588 25.7911L4.62681 25.9555ZM6.30848 23.4997L6.5491 23.6645L6.65889 23.5041L6.55325 23.3411L6.30848 23.4997ZM4.89341 21.3156L4.6465 21.4709L4.64863 21.4742L4.89341 21.3156ZM4.59092 20.7722L4.32212 20.8856L4.3254 20.8928L4.59092 20.7722ZM4.68321 19.9467L4.87735 20.1644L4.87769 20.1641L4.68321 19.9467ZM5.64707 19.9621L5.43222 20.1595L5.43795 20.1654L5.64707 19.9621ZM6.13925 20.6542L5.89093 20.8072L5.89116 20.8076L6.13925 20.6542ZM7.26719 22.4794L7.01909 22.6328L7.25908 23.0211L7.51061 22.6401L7.26719 22.4794ZM8.472 20.6542L8.71543 20.8149L8.71718 20.8122L8.472 20.6542ZM8.72325 20.2595L8.47935 20.0994L8.47591 20.1049L8.72325 20.2595ZM9.14365 19.8288L9.25997 20.0963L9.26516 20.0939L9.14365 19.8288ZM9.89219 19.9467L9.68895 20.1559L9.69199 20.1588L9.69508 20.1617L9.89219 19.9467ZM9.68201 21.2848L9.43964 21.1226L9.43958 21.1227L9.68201 21.2848ZM8.20029 23.4997L7.95785 23.3375L7.85099 23.4973L7.95569 23.6585L8.20029 23.4997ZM9.79477 25.9555L9.55012 26.1143L9.5521 26.1173L9.79477 25.9555ZM10.1075 26.4938L9.84179 26.6141L9.8429 26.6165L10.1075 26.4938ZM10.1178 27.2218L9.86617 27.0744L10.1178 27.2218ZM9.14879 27.4525L9.30267 27.2047L9.29631 27.201L9.14879 27.4525ZM8.56429 26.7143L8.31812 26.8707L8.32016 26.8738L8.56429 26.7143ZM7.24158 24.6327L7.48774 24.4763L7.24537 24.0949L6.99763 24.4728L7.24158 24.6327ZM5.8368 26.7758L5.59283 26.6159L5.59111 26.6186L5.8368 26.7758ZM5.60093 27.1347L5.36199 26.9674L5.35912 26.9715L5.35638 26.9757L5.60093 27.1347ZM4.43199 27.3757L4.23188 27.5879L4.2349 27.5907L4.43199 27.3757ZM4.86746 26.1203L6.5491 23.6645L6.0678 23.3349L4.38616 25.7907L4.86746 26.1203ZM6.55325 23.3411L5.13819 21.157L4.64863 21.4742L6.06365 23.6583L6.55325 23.3411ZM5.14029 21.1603C5.01081 20.9544 4.91737 20.7855 4.85644 20.6515L4.3254 20.8928C4.40119 21.0596 4.50941 21.2529 4.64653 21.4709L5.14029 21.1603ZM4.85962 20.6587C4.80699 20.534 4.78517 20.4257 4.78517 20.3312H4.20184C4.20184 20.5171 4.24497 20.7026 4.32222 20.8856L4.85962 20.6587ZM4.78517 20.3312C4.78517 20.2859 4.80065 20.2327 4.87735 20.1644L4.48907 19.729C4.31282 19.8862 4.20184 20.0894 4.20184 20.3312H4.78517ZM4.87769 20.1641C4.95074 20.0987 5.03745 20.064 5.15488 20.064V19.4807C4.90318 19.4807 4.67544 19.5623 4.48872 19.7293L4.87769 20.1641ZM5.15488 20.064C5.30569 20.064 5.38384 20.1067 5.43231 20.1594L5.86182 19.7647C5.67788 19.5645 5.42791 19.4807 5.15488 19.4807V20.064ZM5.43795 20.1654C5.53318 20.2634 5.68291 20.4696 5.89093 20.8072L6.38758 20.5012C6.17863 20.1621 6.00024 19.9069 5.85622 19.7588L5.43795 20.1654ZM5.89116 20.8076L7.01909 22.6328L7.51528 22.3261L6.3874 20.5009L5.89116 20.8076ZM7.51061 22.6401L8.71543 20.8149L8.22864 20.4936L7.02376 22.3187L7.51061 22.6401ZM8.71718 20.8122C8.81675 20.6577 8.90128 20.5249 8.97058 20.414L8.47591 20.1049C8.40848 20.2127 8.32553 20.3431 8.22689 20.4962L8.71718 20.8122ZM8.96708 20.4195C9.03329 20.3186 9.09255 20.2409 9.14459 20.1834L8.71205 19.792C8.63423 19.8781 8.55676 19.9815 8.47941 20.0994L8.96708 20.4195ZM9.14459 20.1834C9.1853 20.1384 9.22404 20.1119 9.25997 20.0962L9.02734 19.5613C8.90606 19.6141 8.80124 19.6935 8.71205 19.792L9.14459 20.1834ZM9.26516 20.0939C9.30302 20.0766 9.35441 20.064 9.42564 20.064V19.4807C9.28499 19.4807 9.14838 19.5058 9.02215 19.5637L9.26516 20.0939ZM9.42564 20.064C9.55327 20.064 9.63184 20.1004 9.68895 20.1559L10.0954 19.7375C9.91325 19.5605 9.68084 19.4807 9.42564 19.4807V20.064ZM9.69508 20.1617C9.76205 20.2231 9.78509 20.2817 9.78509 20.3517H10.3684C10.3684 20.1072 10.2684 19.8959 10.0893 19.7317L9.69508 20.1617ZM9.78509 20.3517C9.78509 20.4877 9.69852 20.7359 9.43964 21.1226L9.92433 21.4471C10.1918 21.0477 10.3684 20.6738 10.3684 20.3517H9.78509ZM9.43958 21.1227L7.95785 23.3375L8.44272 23.6619L9.92439 21.447L9.43958 21.1227ZM7.95569 23.6585L9.55018 26.1143L10.0394 25.7966L8.44494 23.3409L7.95569 23.6585ZM9.5521 26.1173C9.6917 26.3267 9.78619 26.4912 9.84179 26.6141L10.3733 26.3736C10.2989 26.2094 10.185 26.015 10.0374 25.7937L9.5521 26.1173ZM9.8429 26.6165C9.89388 26.7265 9.91325 26.8179 9.91325 26.8937H10.4966C10.4966 26.7166 10.451 26.5414 10.3722 26.3712L9.8429 26.6165ZM9.91325 26.8937C9.91325 26.9637 9.89691 27.0219 9.86617 27.0744L10.3694 27.3694C10.4548 27.2236 10.4966 27.063 10.4966 26.8937H9.91325ZM9.86617 27.0744C9.83613 27.1256 9.79366 27.1678 9.73142 27.2019L10.0119 27.7134C10.1616 27.6313 10.2833 27.5164 10.3694 27.3694L9.86617 27.0744ZM9.73142 27.2019C9.67279 27.2341 9.60221 27.2532 9.51279 27.2532V27.8365C9.68995 27.8365 9.85864 27.7975 10.0119 27.7134L9.73142 27.2019ZM9.51279 27.2532C9.41105 27.2532 9.34595 27.2316 9.30261 27.2047L8.99496 27.7003C9.1499 27.7965 9.3274 27.8365 9.51279 27.8365V27.2532ZM9.29631 27.201C9.23144 27.1629 9.1835 27.1179 9.14762 27.0661L8.668 27.3981C8.75521 27.5241 8.86791 27.626 9.00126 27.7042L9.29631 27.201ZM9.14762 27.0661C9.08864 26.9809 8.97624 26.8115 8.80847 26.5547L8.32016 26.8738C8.48734 27.1297 8.6039 27.3055 8.668 27.3981L9.14762 27.0661ZM8.81045 26.5578L7.48774 24.4763L6.99541 24.7892L8.31812 26.8707L8.81045 26.5578ZM6.99763 24.4728L5.59284 26.6159L6.08069 26.9357L7.48547 24.7926L6.99763 24.4728ZM5.59111 26.6186C5.48171 26.7895 5.40601 26.9046 5.36199 26.9674L5.83989 27.3019C5.89157 27.2281 5.97306 27.1039 6.08244 26.933L5.59111 26.6186ZM5.35638 26.9757C5.32432 27.0251 5.28297 27.0761 5.23063 27.1284L5.64311 27.5409C5.72066 27.4633 5.78867 27.381 5.84549 27.2936L5.35638 26.9757ZM5.23063 27.1284C5.19358 27.1654 5.14857 27.1961 5.09251 27.2199L5.3198 27.757C5.44148 27.7056 5.55027 27.6337 5.64311 27.5409L5.23063 27.1284ZM5.09251 27.2199C5.04711 27.239 4.98307 27.2532 4.89341 27.2532V27.8365C5.04301 27.8365 5.18747 27.813 5.3198 27.757L5.09251 27.2199ZM4.89341 27.2532C4.77346 27.2532 4.69247 27.2187 4.62907 27.1606L4.2349 27.5907C4.41759 27.7582 4.64422 27.8365 4.89341 27.8365V27.2532ZM4.63207 27.1634C4.5875 27.1214 4.54421 27.0446 4.54421 26.8834H3.96088C3.96088 27.153 4.03721 27.4043 4.2319 27.5879L4.63207 27.1634ZM4.54421 26.8834C4.54421 26.7187 4.62942 26.4692 4.86774 26.1199L4.38588 25.7911C4.12518 26.1732 3.96088 26.5424 3.96088 26.8834H4.54421ZM13.1628 26.1657H12.8711V26.4574H13.1628V26.1657ZM16.8131 26.3451L16.6156 26.5597L16.6184 26.5622L16.8131 26.3451ZM16.8183 27.2475L17.0096 27.4677L17.0128 27.4649L16.8183 27.2475ZM11.8554 27.1962L11.6467 27.4L11.6492 27.4024L11.8554 27.1962ZM11.8451 20.0031L11.6295 19.8066L11.6271 19.8093L11.8451 20.0031ZM12.9475 20.0031L12.7318 20.1996L12.7365 20.2045L12.9475 20.0031ZM12.8711 20.6952V26.1657H13.4544V20.6952H12.8711ZM13.1628 26.4574H16.2492V25.874H13.1628V26.4574ZM16.2492 26.4574C16.451 26.4574 16.5576 26.5063 16.6156 26.5597L17.0108 26.1306C16.809 25.9447 16.5396 25.874 16.2492 25.874V26.4574ZM16.6184 26.5622C16.6892 26.6258 16.7214 26.6969 16.7214 26.7963H17.3048C17.3048 26.5334 17.2037 26.3037 17.008 26.1281L16.6184 26.5622ZM16.7214 26.7963C16.7214 26.9035 16.6878 26.9728 16.6238 27.0301L17.0128 27.4649C17.2085 27.2897 17.3048 27.0583 17.3048 26.7963H16.7214ZM16.6271 27.0272C16.5697 27.0771 16.4595 27.125 16.2492 27.125V27.7083C16.5379 27.7083 16.8071 27.6435 17.0096 27.4677L16.6271 27.0272ZM16.2492 27.125H12.5732V27.7083H16.2492V27.125ZM12.5732 27.125C12.2746 27.125 12.129 27.0573 12.0617 26.99L11.6492 27.4024C11.8758 27.6291 12.2087 27.7083 12.5732 27.7083V27.125ZM12.0641 26.9924C11.998 26.9247 11.9318 26.7791 11.9318 26.4836H11.3484C11.3484 26.8442 11.4258 27.1738 11.6467 27.4L12.0641 26.9924ZM11.9318 26.4836V20.6952H11.3484V26.4836H11.9318ZM11.9318 20.6952C11.9318 20.4247 11.9926 20.2762 12.0631 20.1969L11.6271 19.8093C11.4243 20.0376 11.3484 20.3506 11.3484 20.6952H11.9318ZM12.0607 20.1996C12.1406 20.1119 12.2425 20.064 12.3938 20.064V19.4807C12.0938 19.4807 11.83 19.5867 11.6295 19.8067L12.0607 20.1996ZM12.3938 20.064C12.5499 20.064 12.6529 20.1129 12.7319 20.1996L13.1631 19.8067C12.9617 19.5857 12.6956 19.4807 12.3938 19.4807V20.064ZM12.7365 20.2045C12.8076 20.2789 12.8711 20.4227 12.8711 20.6952H13.4544C13.4544 20.3457 13.3745 20.028 13.1584 19.8017L12.7365 20.2045ZM23.3958 26.3862L23.1513 26.227L23.1502 26.2287L23.3958 26.3862ZM18.9302 27.1244L18.782 27.3757L18.7836 27.3765L18.9302 27.1244ZM18.0945 26.3195L17.8473 26.4743L17.8491 26.4772L18.0945 26.3195ZM17.9663 24.8634L17.7574 24.6599L17.7573 24.66L17.9663 24.8634ZM18.8636 24.8173L18.6641 25.0301L18.6673 25.0331L18.8636 24.8173ZM19.1506 25.2736L18.8789 25.3796L18.8798 25.3819L19.1506 25.2736ZM19.4583 25.8735L19.2172 26.0376L19.2196 26.0411L19.4583 25.8735ZM19.93 26.2733L19.7943 26.5316L19.7978 26.5333L19.93 26.2733ZM21.8218 26.1144L21.9959 26.3485L21.9964 26.3481L21.8218 26.1144ZM22.0166 24.7199L21.8058 24.9215L21.8104 24.9261L22.0166 24.7199ZM21.427 24.361L21.3324 24.6369L21.3336 24.6373L21.427 24.361ZM20.4631 24.0995L20.3966 24.3835L20.3981 24.3839L20.4631 24.0995ZM19.1045 23.6586L18.9801 23.9224L18.9831 23.9238L19.1045 23.6586ZM18.2381 22.9665L18.0015 23.137L18.0037 23.1401L18.2381 22.9665ZM19.2378 20.0339L19.3462 20.3047L19.348 20.3039L19.2378 20.0339ZM21.9397 19.9467L21.8441 20.2222L21.8475 20.2234L21.9397 19.9467ZM22.7805 20.403L22.5901 20.624L22.5921 20.6257L22.7805 20.403ZM23.2266 22.1L23.008 21.9069L23.0077 21.9072L23.2266 22.1ZM22.3499 22.1872L22.1436 22.3934L22.1476 22.3974L22.1517 22.4012L22.3499 22.1872ZM22.0576 21.7565L21.7949 21.8831L21.7976 21.8887L21.8004 21.894L22.0576 21.7565ZM21.5654 21.0951L21.3779 21.3186L21.3803 21.3205L21.5654 21.0951ZM19.689 21.1156L19.8585 21.353L19.8591 21.3525L19.689 21.1156ZM20.9553 22.787L20.8839 23.0698L20.8889 23.071L20.9553 22.787ZM22.1037 23.1152L22.0074 23.3904L22.0083 23.3907L22.1037 23.1152ZM22.9805 23.5509L22.811 23.7883L22.8126 23.7894L22.9805 23.5509ZM23.5445 24.2021L23.2842 24.3339L23.2863 24.3379L23.5445 24.2021ZM23.4578 25.1608C23.4578 25.562 23.3547 25.9146 23.1514 26.227L23.6402 26.5453C23.9085 26.1331 24.0412 25.6688 24.0412 25.1608H23.4578ZM23.1502 26.2287C22.9526 26.5369 22.6576 26.7863 22.2497 26.9717L22.4911 27.5028C22.9855 27.278 23.3741 26.96 23.6412 26.5437L23.1502 26.2287ZM22.2497 26.9717C21.8446 27.1558 21.3527 27.2532 20.7656 27.2532V27.8365C21.4159 27.8365 21.9938 27.7288 22.4911 27.5028L22.2497 26.9717ZM20.7656 27.2532C20.059 27.2532 19.5018 27.1195 19.0768 26.8723L18.7836 27.3765C19.3224 27.6899 19.9889 27.8365 20.7656 27.8365V27.2532ZM19.0784 26.8732C18.776 26.6948 18.5307 26.4585 18.3398 26.1618L17.8491 26.4772C18.089 26.8504 18.4008 27.1507 18.782 27.3757L19.0784 26.8732ZM18.3417 26.1647C18.1514 25.8609 18.0683 25.5858 18.0683 25.3351H17.485C17.485 25.7202 17.6137 26.1013 17.8473 26.4743L18.3417 26.1647ZM18.0683 25.3351C18.0683 25.225 18.1029 25.1413 18.1753 25.0669L17.7573 24.66C17.5768 24.8454 17.485 25.0761 17.485 25.3351H18.0683ZM18.1752 25.067C18.2463 24.994 18.3333 24.9552 18.4585 24.9552V24.3718C18.1873 24.3718 17.946 24.4663 17.7574 24.6599L18.1752 25.067ZM18.4585 24.9552C18.5508 24.9552 18.6128 24.9821 18.6641 25.0301L19.063 24.6045C18.8955 24.4474 18.6875 24.3718 18.4585 24.3718V24.9552ZM18.6673 25.0331C18.7358 25.0954 18.8102 25.2034 18.8789 25.3796L19.4224 25.1677C19.3338 24.9405 19.2168 24.7443 19.0597 24.6015L18.6673 25.0331ZM18.8798 25.3819C18.981 25.6349 19.0928 25.8549 19.2172 26.0376L19.6994 25.7093C19.605 25.5707 19.5117 25.3909 19.4215 25.1653L18.8798 25.3819ZM19.2196 26.0411C19.363 26.2453 19.5581 26.4075 19.7943 26.5316L20.0656 26.0152C19.8984 25.9273 19.7791 25.8229 19.697 25.7059L19.2196 26.0411ZM19.7978 26.5333C20.0546 26.6639 20.3698 26.7188 20.7246 26.7188V26.1355C20.4232 26.1355 20.2086 26.0878 20.0621 26.0133L19.7978 26.5333ZM20.7246 26.7188C21.2202 26.7188 21.6523 26.604 21.9959 26.3484L21.6477 25.8804C21.4307 26.0418 21.1314 26.1355 20.7246 26.1355V26.7188ZM21.9964 26.3481C22.3431 26.0891 22.539 25.7438 22.539 25.3249H21.9556C21.9556 25.5348 21.8679 25.716 21.6472 25.8808L21.9964 26.3481ZM22.539 25.3249C22.539 25.0104 22.4395 24.7303 22.2229 24.5137L21.8104 24.9261C21.9013 25.0171 21.9556 25.1404 21.9556 25.3249H22.539ZM22.2274 24.5183C22.0392 24.3215 21.7998 24.1791 21.5204 24.0847L21.3336 24.6373C21.5396 24.707 21.6933 24.8038 21.8058 24.9215L22.2274 24.5183ZM21.5216 24.0851C21.2685 23.9983 20.9361 23.9086 20.5282 23.8152L20.3981 24.3839C20.7968 24.4751 21.107 24.5596 21.3324 24.6369L21.5216 24.0851ZM20.5297 23.8155C20.0019 23.692 19.5688 23.5505 19.2259 23.3934L18.9831 23.9238C19.3716 24.1018 19.8443 24.2542 20.3966 24.3835L20.5297 23.8155ZM19.229 23.3948C18.9053 23.2422 18.6561 23.0407 18.4724 22.7928L18.0037 23.1401C18.2507 23.4733 18.5791 23.7332 18.9801 23.9224L19.229 23.3948ZM18.4747 22.7959C18.3052 22.5608 18.2119 22.2597 18.2119 21.8744H17.6285C17.6285 22.3573 17.7471 22.7842 18.0015 23.137L18.4747 22.7959ZM18.2119 21.8744C18.2119 21.5174 18.3081 21.2092 18.4973 20.9397L18.0198 20.6046C17.7579 20.9776 17.6285 21.4043 17.6285 21.8744H18.2119ZM18.4973 20.9397C18.6851 20.6723 18.9622 20.4582 19.3462 20.3047L19.1295 19.763C18.6589 19.9513 18.2833 20.2294 18.0198 20.6046L18.4973 20.9397ZM19.348 20.3039C19.7327 20.147 20.1961 20.064 20.7451 20.064V19.4807C20.1389 19.4807 19.5975 19.5721 19.1276 19.7638L19.348 20.3039ZM20.7451 20.064C21.1833 20.064 21.5476 20.1194 21.8441 20.2222L22.0353 19.6712C21.6619 19.5416 21.2299 19.4807 20.7451 19.4807V20.064ZM21.8475 20.2234C22.1574 20.3267 22.4022 20.4621 22.5902 20.624L22.9709 20.1821C22.7145 19.9611 22.3987 19.7923 22.0319 19.67L21.8475 20.2234ZM22.5921 20.6257C22.7911 20.794 22.9249 20.9619 23.0059 21.1265L23.5293 20.869C23.4052 20.6166 23.2142 20.3879 22.9689 20.1804L22.5921 20.6257ZM23.0059 21.1265C23.0921 21.3018 23.1297 21.4613 23.1297 21.6078H23.713C23.713 21.3579 23.6482 21.1107 23.5293 20.869L23.0059 21.1265ZM23.1297 21.6078C23.1297 21.7117 23.095 21.8084 23.008 21.9069L23.4451 22.2931C23.6179 22.0977 23.713 21.8663 23.713 21.6078H23.1297ZM23.0077 21.9072C22.9367 21.9879 22.8575 22.0237 22.7498 22.0237V22.607C23.0249 22.607 23.2636 22.4993 23.4454 22.2928L23.0077 21.9072ZM22.7498 22.0237C22.6203 22.0237 22.5686 21.9922 22.548 21.9732L22.1517 22.4012C22.3157 22.5531 22.5305 22.607 22.7498 22.607V22.0237ZM22.5561 21.9809C22.4976 21.9224 22.4162 21.8086 22.3149 21.619L21.8004 21.894C21.911 22.1009 22.0245 22.2742 22.1436 22.3934L22.5561 21.9809ZM22.3204 21.6299C22.1701 21.318 21.9824 21.0601 21.7506 20.8697L21.3803 21.3205C21.5314 21.4446 21.6717 21.6276 21.7949 21.8831L22.3204 21.6299ZM21.7529 20.8717C21.4832 20.6453 21.0913 20.5625 20.6426 20.5625V21.1458C21.0416 21.1458 21.2649 21.2237 21.378 21.3186L21.7529 20.8717ZM20.6426 20.5625C20.2076 20.5625 19.8247 20.6591 19.5188 20.8787L19.8591 21.3525C20.0387 21.2236 20.2914 21.1458 20.6426 21.1458V20.5625ZM19.5195 20.8783C19.2219 21.0908 19.0384 21.3786 19.0384 21.736H19.6218C19.6218 21.608 19.6775 21.4822 19.8585 21.353L19.5195 20.8783ZM19.0384 21.736C19.0384 21.9428 19.0961 22.1357 19.2198 22.3007L19.6865 21.9507C19.6461 21.8968 19.6218 21.83 19.6218 21.736H19.0384ZM19.2198 22.3007C19.3312 22.4492 19.4785 22.5688 19.6514 22.6634L19.9316 22.1518C19.8175 22.0893 19.7391 22.0208 19.6865 21.9507L19.2198 22.3007ZM19.6514 22.6634C19.8115 22.7511 19.9754 22.8208 20.1429 22.8714L20.3117 22.313C20.1853 22.2748 20.0586 22.2214 19.9316 22.1518L19.6514 22.6634ZM20.1429 22.8714C20.2969 22.9179 20.5453 22.9843 20.8839 23.0698L21.0267 22.5042C20.6887 22.4188 20.4517 22.3553 20.3117 22.313L20.1429 22.8714ZM20.8889 23.071C21.3046 23.1683 21.6772 23.2748 22.0074 23.3904L22.2001 22.8398C21.8468 22.7162 21.4537 22.6041 21.0218 22.503L20.8889 23.071ZM22.0083 23.3907C22.3332 23.5034 22.5991 23.637 22.811 23.7883L23.15 23.3136C22.8833 23.1231 22.5648 22.9662 22.1993 22.8395L22.0083 23.3907ZM22.8126 23.7894C23.0164 23.933 23.1726 24.1135 23.2842 24.3339L23.8046 24.0703C23.6496 23.7642 23.4298 23.5107 23.1484 23.3125L22.8126 23.7894ZM23.2863 24.3379C23.3955 24.5453 23.4578 24.8154 23.4578 25.1608H24.0412C24.0412 24.7475 23.9668 24.3783 23.8025 24.0662L23.2863 24.3379Z" fill="#20744A"/>
</g>
<defs>
<clipPath id="clip0_24_275">
<rect width="28" height="29.75" fill="white"/>
</clipPath>
</defs>
</svg>
