<svg width="28" height="30" viewBox="0 0 28 30" fill="none" xmlns="http://www.w3.org/2000/svg">
<g clip-path="url(#clip0_24_245)">
<path d="M27.9999 10.0312V16.25C27.9999 16.5815 27.8658 16.8995 27.6272 17.1339C27.3885 17.3683 27.0648 17.5 26.7272 17.5C26.3897 17.5 26.066 17.3683 25.8273 17.1339C25.5886 16.8995 25.4545 16.5815 25.4545 16.25V11.25H17.8182C17.4806 11.25 17.1569 11.1183 16.9182 10.8839C16.6795 10.6494 16.5454 10.3315 16.5454 10V2.50001H2.54545V16.25C2.54545 16.5815 2.41136 16.8995 2.17268 17.1339C1.934 17.3683 1.61027 17.5 1.27272 17.5C0.935177 17.5 0.611456 17.3683 0.372773 17.1339C0.13409 16.8995 0 16.5815 0 16.25V2.50001C0 1.83697 0.268181 1.20109 0.745547 0.732252C1.22291 0.263412 1.87035 2.01407e-05 2.54545 2.01407e-05H17.8182C18.1568 -0.00185479 18.4825 0.127242 18.7249 0.359395L27.6182 9.10939C27.7402 9.22443 27.8371 9.36279 27.9028 9.51592C27.9684 9.6691 28.0015 9.83383 27.9999 10V10.0312ZM19.0909 8.75H23.6568L19.0909 4.26564V8.75Z" fill="#3E6DEE"/>
<path d="M2.89557 20.6952V26.1657H5.982C6.22811 26.1657 6.41606 26.2255 6.54597 26.3451C6.67926 26.4648 6.74593 26.6152 6.74593 26.7963C6.74593 26.9809 6.68095 27.1312 6.5511 27.2475C6.42119 27.3603 6.23149 27.4167 5.982 27.4167H2.30596C1.97443 27.4167 1.73517 27.3432 1.5882 27.1962C1.44464 27.0492 1.37286 26.8117 1.37286 26.4836V20.6952C1.37286 20.3876 1.44122 20.1569 1.57794 20.0031C1.71807 19.8493 1.90094 19.7724 2.12652 19.7724C2.35553 19.7724 2.5401 19.8493 2.68024 20.0031C2.82379 20.1535 2.89557 20.3842 2.89557 20.6952ZM8.23233 26.6169V20.6952C8.23233 20.3876 8.30239 20.1569 8.4425 20.0031C8.58268 19.8493 8.7638 19.7724 8.98599 19.7724C9.21495 19.7724 9.39958 19.8493 9.53969 20.0031C9.68325 20.1535 9.755 20.3842 9.755 20.6952V26.6169C9.755 26.9279 9.68325 27.1603 9.53969 27.3141C9.39958 27.4679 9.21495 27.5448 8.98599 27.5448C8.76724 27.5448 8.58606 27.4679 8.4425 27.3141C8.30239 27.1569 8.23233 26.9244 8.23233 26.6169ZM13.8665 20.685L16.7939 25.1147V20.6439C16.7939 20.3534 16.8555 20.1364 16.9785 19.9928C17.1049 19.8459 17.2742 19.7724 17.486 19.7724C17.7048 19.7724 17.8774 19.8459 18.0039 19.9928C18.1303 20.1364 18.1936 20.3534 18.1936 20.6439V26.5553C18.1936 27.215 17.9202 27.5448 17.3733 27.5448C17.2365 27.5448 17.1135 27.5243 17.0041 27.4833C16.8948 27.4457 16.7922 27.3842 16.6965 27.2988C16.6008 27.2133 16.5119 27.1141 16.4299 27.0014C16.3479 26.8852 16.2658 26.7672 16.1838 26.6476L13.3281 22.2692V26.6733C13.3281 26.9604 13.2614 27.1774 13.1281 27.3244C12.9948 27.4714 12.8239 27.5448 12.6154 27.5448C12.4001 27.5448 12.2275 27.4714 12.0976 27.3244C11.9678 27.174 11.9028 26.9569 11.9028 26.6733V20.8747C11.9028 20.6286 11.9301 20.4354 11.9849 20.2953C12.0498 20.1415 12.1575 20.0168 12.3078 19.9211C12.4582 19.822 12.6206 19.7724 12.7949 19.7724C12.9316 19.7724 13.0478 19.7946 13.1435 19.839C13.2426 19.8834 13.3281 19.9433 13.3999 20.0185C13.4751 20.0937 13.5503 20.1911 13.6255 20.3107C13.7041 20.4303 13.7844 20.5551 13.8665 20.685ZM21.8128 20.6952V23.3305L24.8018 20.2133C24.9454 20.0629 25.0667 19.9518 25.1658 19.8801C25.2683 19.8082 25.4034 19.7724 25.5709 19.7724C25.7896 19.7724 25.9656 19.8373 26.099 19.9672C26.2356 20.0937 26.304 20.2492 26.304 20.4338C26.304 20.6559 26.1895 20.8764 25.9605 21.0951L24.1097 22.8485L26.2425 25.9042C26.3929 26.1161 26.5057 26.3024 26.5808 26.463C26.656 26.6203 26.6937 26.7741 26.6937 26.9244C26.6937 27.092 26.627 27.2372 26.4937 27.3603C26.3638 27.4833 26.1861 27.5448 25.9605 27.5448C25.7486 27.5448 25.576 27.5004 25.4427 27.4115C25.3094 27.3192 25.1966 27.1979 25.1043 27.0475C25.012 26.8971 24.93 26.7604 24.8582 26.6374L23.0586 23.8688L21.8128 25.0634V26.6169C21.8128 26.9313 21.741 27.1654 21.5975 27.3192C21.4539 27.4696 21.2694 27.5448 21.0437 27.5448C20.9139 27.5448 20.7891 27.5106 20.6695 27.4423C20.5499 27.374 20.4576 27.2817 20.3926 27.1654C20.3448 27.0698 20.3157 26.9586 20.3055 26.8322C20.2952 26.7057 20.2901 26.5229 20.2901 26.2836V20.6952C20.2901 20.3876 20.3567 20.1569 20.49 20.0031C20.6268 19.8493 20.8113 19.7724 21.0437 19.7724C21.2727 19.7724 21.4573 19.8493 21.5975 20.0031C21.741 20.1535 21.8128 20.3842 21.8128 20.6952Z" fill="#3E6DEE"/>
<path d="M2.89561 26.1657H2.60394V26.4574H2.89561V26.1657ZM6.54601 26.3451L6.34838 26.5597L6.35118 26.5622L6.54601 26.3451ZM6.55114 27.2475L6.74236 27.4677L6.74563 27.4649L6.55114 27.2475ZM1.58824 27.1962L1.37957 27.4L1.38199 27.4024L1.58824 27.1962ZM1.57798 20.0031L1.36236 19.8066L1.35998 19.8093L1.57798 20.0031ZM2.68028 20.0031L2.46462 20.1996L2.4693 20.2045L2.68028 20.0031ZM2.60394 20.6952V26.1657H3.18728V20.6952H2.60394ZM2.89561 26.4574H5.98204V25.874H2.89561V26.4574ZM5.98204 26.4574C6.18388 26.4574 6.29045 26.5063 6.34838 26.5597L6.74358 26.1306C6.54181 25.9447 6.27237 25.874 5.98204 25.874V26.4574ZM6.35118 26.5622C6.42205 26.6258 6.45431 26.6969 6.45431 26.7963H7.03764C7.03764 26.5334 6.93655 26.3037 6.74078 26.1281L6.35118 26.5622ZM6.45431 26.7963C6.45431 26.9035 6.42065 26.9728 6.35666 27.0301L6.74563 27.4649C6.94133 27.2897 7.03764 27.0583 7.03764 26.7963H6.45431ZM6.35987 27.0272C6.30258 27.0771 6.19233 27.125 5.98204 27.125V27.7083C6.27073 27.7083 6.53994 27.6435 6.74236 27.4677L6.35987 27.0272ZM5.98204 27.125H2.306V27.7083H5.98204V27.125ZM2.306 27.125C2.00746 27.125 1.86183 27.0573 1.79447 26.99L1.38199 27.4024C1.60859 27.6291 1.94147 27.7083 2.306 27.7083V27.125ZM1.79688 26.9924C1.73077 26.9247 1.66457 26.7791 1.66457 26.4836H1.08124C1.08124 26.8442 1.15859 27.1738 1.37958 27.4L1.79688 26.9924ZM1.66457 26.4836V20.6952H1.08124V26.4836H1.66457ZM1.66457 20.6952C1.66457 20.4247 1.72544 20.2762 1.79597 20.1969L1.35998 19.8093C1.15708 20.0376 1.08124 20.3506 1.08124 20.6952H1.66457ZM1.79358 20.1996C1.87345 20.1119 1.97531 20.064 2.12657 20.064V19.4807C1.82665 19.4807 1.56279 19.5867 1.36238 19.8067L1.79358 20.1996ZM2.12657 20.064C2.28271 20.064 2.38572 20.1129 2.46468 20.1996L2.89587 19.8067C2.69456 19.5857 2.42843 19.4807 2.12657 19.4807V20.064ZM2.4693 20.2045C2.54038 20.2789 2.60394 20.4227 2.60394 20.6952H3.18728C3.18728 20.3457 3.10728 20.028 2.89125 19.8017L2.4693 20.2045ZM9.53973 20.0031L9.32408 20.1996L9.32874 20.2045L9.53973 20.0031ZM9.53973 27.3141L9.32647 27.1151L9.32413 27.1177L9.53973 27.3141ZM8.44254 27.3141L8.22478 27.5083L8.22933 27.5132L8.44254 27.3141ZM8.52403 26.6169V20.6952H7.9407V26.6169H8.52403ZM8.52403 20.6952C8.52403 20.4262 8.58587 20.2789 8.65814 20.1996L8.22694 19.8067C8.01898 20.0349 7.9407 20.349 7.9407 20.6952H8.52403ZM8.65814 20.1996C8.73893 20.1108 8.83968 20.064 8.98603 20.064V19.4807C8.68801 19.4807 8.42644 19.5877 8.22694 19.8067L8.65814 20.1996ZM8.98603 20.064C9.14213 20.064 9.24515 20.1129 9.32413 20.1996L9.75533 19.8067C9.55403 19.5857 9.28785 19.4807 8.98603 19.4807V20.064ZM9.32874 20.2045C9.39985 20.2789 9.46338 20.4227 9.46338 20.6952H10.0467C10.0467 20.3457 9.96673 20.028 9.75073 19.8017L9.32874 20.2045ZM9.46338 20.6952V26.6169H10.0467V20.6952H9.46338ZM9.46338 26.6169C9.46338 26.8888 9.40008 27.0363 9.32653 27.1151L9.75294 27.5132C9.96644 27.2844 10.0467 26.967 10.0467 26.6169H9.46338ZM9.32413 27.1177C9.24515 27.2043 9.14213 27.2532 8.98603 27.2532V27.8365C9.28785 27.8365 9.55403 27.7315 9.75533 27.5106L9.32413 27.1177ZM8.98603 27.2532C8.84452 27.2532 8.74173 27.2073 8.65581 27.1151L8.22933 27.5132C8.43047 27.7286 8.69005 27.8365 8.98603 27.8365V27.2532ZM8.6603 27.12C8.58563 27.0363 8.52403 26.8853 8.52403 26.6169H7.9407C7.9407 26.9637 8.01922 27.2775 8.22484 27.5082L8.6603 27.12ZM13.8665 20.685L13.6198 20.8408L13.6231 20.8458L13.8665 20.685ZM16.794 25.1147L16.5506 25.2755L17.0856 26.085V25.1147H16.794ZM16.9785 19.9928L16.7574 19.8026L16.7571 19.803L16.9785 19.9928ZM18.0039 19.9928L17.7828 20.1831L17.785 20.1857L18.0039 19.9928ZM17.0042 27.4833L17.1066 27.2101L17.099 27.2075L17.0042 27.4833ZM16.6965 27.2988L16.5023 27.5163L16.6965 27.2988ZM16.43 27.0014L16.1917 27.1696L16.1941 27.173L16.43 27.0014ZM16.1838 26.6476L15.9395 26.807L15.9433 26.8126L16.1838 26.6476ZM13.3281 22.2692L13.5724 22.1099L13.0365 21.2881V22.2692H13.3281ZM12.0977 27.3244L11.8769 27.515L11.8791 27.5175L12.0977 27.3244ZM11.9849 20.2953L11.7161 20.1818L11.7132 20.1893L11.9849 20.2953ZM12.3079 19.9211L12.4645 20.1672L12.4684 20.1646L12.3079 19.9211ZM13.1436 19.8391L13.0207 20.1036L13.0243 20.1052L13.1436 19.8391ZM13.3999 20.0185L13.1889 20.2199L13.1937 20.2247L13.3999 20.0185ZM13.6255 20.3107L13.3785 20.466L13.3817 20.4709L13.6255 20.3107ZM13.6231 20.8458L16.5506 25.2755L17.0373 24.9538L14.1098 20.5242L13.6231 20.8458ZM17.0856 25.1147V20.6439H16.5023V25.1147H17.0856ZM17.0856 20.6439C17.0856 20.3873 17.1411 20.2514 17.2 20.1826L16.7571 19.803C16.5699 20.0214 16.5023 20.3196 16.5023 20.6439H17.0856ZM17.1996 20.1831C17.2651 20.107 17.3502 20.064 17.4861 20.064V19.4807C17.1981 19.4807 16.9449 19.5848 16.7574 19.8026L17.1996 20.1831ZM17.4861 20.064C17.6321 20.064 17.7192 20.1092 17.7828 20.1831L18.225 19.8026C18.0356 19.5826 17.7776 19.4807 17.4861 19.4807V20.064ZM17.785 20.1857C17.8455 20.2542 17.9019 20.3889 17.9019 20.6439H18.4853C18.4853 20.318 18.4153 20.0185 18.2228 19.8L17.785 20.1857ZM17.9019 20.6439V26.5553H18.4853V20.6439H17.9019ZM17.9019 26.5553C17.9019 26.8521 17.8393 27.0205 17.764 27.1113C17.6974 27.1917 17.5859 27.2532 17.3733 27.2532V27.8365C17.7076 27.8365 18.0063 27.7331 18.2131 27.4836C18.4112 27.2446 18.4853 26.9182 18.4853 26.5553H17.9019ZM17.3733 27.2532C17.2657 27.2532 17.1781 27.2371 17.1066 27.2102L16.9018 27.7564C17.0489 27.8116 17.2075 27.8365 17.3733 27.8365V27.2532ZM17.099 27.2075C17.0301 27.1838 16.9607 27.1436 16.8908 27.0812L16.5023 27.5163C16.6238 27.6248 16.7595 27.7076 16.9093 27.7591L17.099 27.2075ZM16.8908 27.0812C16.8119 27.0107 16.7367 26.9273 16.6659 26.8298L16.1941 27.173C16.2873 27.3011 16.3898 27.4159 16.5023 27.5163L16.8908 27.0812ZM16.6682 26.8332C16.587 26.7181 16.5057 26.6012 16.4244 26.4827L15.9433 26.8126C16.0261 26.9333 16.1088 27.0523 16.1917 27.1696L16.6682 26.8332ZM16.4281 26.4883L13.5724 22.1099L13.0838 22.4285L15.9395 26.807L16.4281 26.4883ZM13.0365 22.2692V26.6733H13.6198V22.2692H13.0365ZM13.0365 26.6733C13.0365 26.9199 12.9789 27.0548 12.9122 27.1284L13.3442 27.5203C13.5441 27.2999 13.6198 27.0008 13.6198 26.6733H13.0365ZM12.9122 27.1284C12.8372 27.211 12.7464 27.2532 12.6155 27.2532V27.8365C12.9015 27.8365 13.1526 27.7317 13.3442 27.5203L12.9122 27.1284ZM12.6155 27.2532C12.4746 27.2532 12.3849 27.209 12.3162 27.1312L11.8791 27.5175C12.0702 27.7337 12.3257 27.8365 12.6155 27.8365V27.2532ZM12.3184 27.1338C12.2504 27.0551 12.1945 26.9165 12.1945 26.6733H11.6112C11.6112 26.9974 11.6851 27.2929 11.8769 27.515L12.3184 27.1338ZM12.1945 26.6733V20.8747H11.6112V26.6733H12.1945ZM12.1945 20.8747C12.1945 20.6448 12.2209 20.493 12.2566 20.4014L11.7132 20.1893C11.6396 20.3779 11.6112 20.6124 11.6112 20.8747H12.1945ZM12.2536 20.4088C12.2939 20.3133 12.3605 20.2333 12.4645 20.1671L12.1513 19.675C11.9545 19.8002 11.8058 19.9697 11.7162 20.1819L12.2536 20.4088ZM12.4684 20.1646C12.5728 20.0958 12.6796 20.064 12.7949 20.064V19.4807C12.5616 19.4807 12.3437 19.5481 12.1474 19.6775L12.4684 20.1646ZM12.7949 20.064C12.9013 20.064 12.9731 20.0815 13.0207 20.1036L13.2664 19.5745C13.1226 19.5077 12.962 19.4807 12.7949 19.4807V20.064ZM13.0243 20.1052C13.0905 20.1349 13.1444 20.1732 13.189 20.2199L13.6109 19.8171C13.5119 19.7133 13.3949 19.6321 13.2629 19.5729L13.0243 20.1052ZM13.1937 20.2247C13.2493 20.2804 13.3115 20.3592 13.3786 20.4659L13.8724 20.1555C13.7891 20.023 13.7009 19.907 13.6062 19.8122L13.1937 20.2247ZM13.3817 20.4709C13.4593 20.5889 13.5387 20.7122 13.6199 20.8408L14.1131 20.5293C14.0302 20.3979 13.9489 20.2717 13.8692 20.1506L13.3817 20.4709ZM21.8128 23.3305H21.5212V24.0561L22.0234 23.5324L21.8128 23.3305ZM24.8018 20.2133L25.0124 20.4152L25.0128 20.4147L24.8018 20.2133ZM25.1658 19.8801L24.9986 19.6411L24.9948 19.6438L25.1658 19.8801ZM26.099 19.9672L25.8953 20.1762L25.9009 20.1813L26.099 19.9672ZM25.9605 21.0951L26.1611 21.3069L26.162 21.306L25.9605 21.0951ZM24.1097 22.8485L23.9091 22.6368L23.7268 22.8096L23.8705 23.0155L24.1097 22.8485ZM26.2425 25.9042L26.0033 26.0712L26.0047 26.073L26.2425 25.9042ZM26.5809 26.463L26.3167 26.5867L26.3178 26.5889L26.5809 26.463ZM26.4937 27.3603L26.2959 27.1459L26.2931 27.1485L26.4937 27.3603ZM25.4427 27.4115L25.2767 27.6514L25.2809 27.6542L25.4427 27.4115ZM24.8582 26.6374L25.1102 26.4904L25.1066 26.4843L25.1028 26.4784L24.8582 26.6374ZM23.0587 23.8688L23.3032 23.7099L23.1112 23.4144L22.8568 23.6583L23.0587 23.8688ZM21.8128 25.0634L21.6109 24.8529L21.5212 24.939V25.0634H21.8128ZM21.5975 27.3193L21.8085 27.5207L21.8107 27.5183L21.5975 27.3193ZM20.6695 27.4423L20.8142 27.1891L20.6695 27.4423ZM20.3927 27.1654L20.1318 27.2959L20.1348 27.3019L20.1381 27.3077L20.3927 27.1654ZM20.4901 20.0031L20.2721 19.8093L20.2697 19.8121L20.4901 20.0031ZM21.5975 20.0031L21.3819 20.1996L21.3865 20.2045L21.5975 20.0031ZM21.5212 20.6952V23.3305H22.1045V20.6952H21.5212ZM22.0234 23.5324L25.0124 20.4152L24.5913 20.0114L21.6023 23.1286L22.0234 23.5324ZM25.0128 20.4147C25.1514 20.2696 25.2586 20.173 25.3369 20.1163L24.9948 19.6438C24.8749 19.7307 24.7395 19.8563 24.5908 20.0119L25.0128 20.4147ZM25.3331 20.119C25.3725 20.0914 25.4433 20.064 25.5709 20.064V19.4807C25.3635 19.4807 25.1643 19.5252 24.9986 19.6411L25.3331 20.119ZM25.5709 20.064C25.7279 20.064 25.8261 20.1085 25.8954 20.1761L26.3025 19.7583C26.1053 19.5662 25.8514 19.4807 25.5709 19.4807V20.064ZM25.9009 20.1813C25.9786 20.2532 26.0124 20.3313 26.0124 20.4338H26.5957C26.5957 20.1671 26.4928 19.9342 26.297 19.7531L25.9009 20.1813ZM26.0124 20.4338C26.0124 20.5474 25.9554 20.6967 25.7591 20.8842L26.162 21.306C26.4237 21.0561 26.5957 20.7645 26.5957 20.4338H26.0124ZM25.76 20.8834L23.9091 22.6368L24.3103 23.0603L26.1611 21.3069L25.76 20.8834ZM23.8705 23.0155L26.0033 26.0712L26.4817 25.7373L24.3489 22.6816L23.8705 23.0155ZM26.0047 26.073C26.1492 26.2766 26.2515 26.4473 26.3167 26.5867L26.8451 26.3394C26.7599 26.1575 26.6367 25.9557 26.4804 25.7354L26.0047 26.073ZM26.3178 26.5889C26.3772 26.7131 26.402 26.8241 26.402 26.9245H26.9854C26.9854 26.7241 26.935 26.5275 26.844 26.3372L26.3178 26.5889ZM26.402 26.9245C26.402 27.0033 26.375 27.073 26.2959 27.1459L26.6916 27.5746C26.8791 27.4014 26.9854 27.1807 26.9854 26.9245H26.402ZM26.2931 27.1485C26.2306 27.2078 26.1318 27.2532 25.9605 27.2532V27.8365C26.2404 27.8365 26.4971 27.7589 26.6943 27.572L26.2931 27.1485ZM25.9605 27.2532C25.788 27.2532 25.6767 27.217 25.6045 27.1689L25.2809 27.6542C25.4753 27.7838 25.7093 27.8365 25.9605 27.8365V27.2532ZM25.6088 27.1717C25.5116 27.1045 25.4259 27.0139 25.3529 26.895L24.8557 27.2001C24.9673 27.3819 25.1073 27.534 25.2767 27.6513L25.6088 27.1717ZM25.3529 26.895C25.2615 26.746 25.1807 26.6112 25.1102 26.4904L24.6063 26.7843C24.6794 26.9096 24.7626 27.0482 24.8557 27.2001L25.3529 26.895ZM25.1028 26.4784L23.3032 23.7099L22.8141 24.0278L24.6137 26.7964L25.1028 26.4784ZM22.8568 23.6583L21.6109 24.8529L22.0147 25.2739L23.2605 24.0794L22.8568 23.6583ZM21.5212 25.0634V26.6169H22.1045V25.0634H21.5212ZM21.5212 26.6169C21.5212 26.8932 21.4574 27.0419 21.3843 27.1202L21.8107 27.5183C22.0247 27.289 22.1045 26.9694 22.1045 26.6169H21.5212ZM21.3865 27.1179C21.303 27.2054 21.1972 27.2532 21.0438 27.2532V27.8365C21.3416 27.8365 21.6049 27.7339 21.8085 27.5206L21.3865 27.1179ZM21.0438 27.2532C20.9678 27.2532 20.8926 27.2339 20.8142 27.1891L20.5248 27.6956C20.6857 27.7875 20.86 27.8365 21.0438 27.8365V27.2532ZM20.8142 27.1891C20.739 27.1461 20.6854 27.0914 20.6473 27.0232L20.1381 27.3077C20.2298 27.4719 20.3609 27.6018 20.5248 27.6956L20.8142 27.1891ZM20.6535 27.035C20.6252 26.9783 20.604 26.9047 20.5962 26.8086L20.0148 26.8558C20.0275 27.0127 20.0645 27.1612 20.1318 27.2959L20.6535 27.035ZM20.5962 26.8086C20.587 26.6941 20.5818 26.5206 20.5818 26.2836H19.9984C19.9984 26.5252 20.0036 26.7174 20.0148 26.8558L20.5962 26.8086ZM20.5818 26.2836V20.6952H19.9984V26.2836H20.5818ZM20.5818 20.6952C20.5818 20.4231 20.6416 20.2736 20.7105 20.1941L20.2697 19.8121C20.0719 20.0402 19.9984 20.3521 19.9984 20.6952H20.5818ZM20.7081 20.1969C20.782 20.1137 20.8827 20.064 21.0438 20.064V19.4807C20.74 19.4807 20.4716 19.5848 20.2721 19.8093L20.7081 20.1969ZM21.0438 20.064C21.1999 20.064 21.3029 20.1129 21.3819 20.1996L21.8131 19.8067C21.6118 19.5857 21.3456 19.4807 21.0438 19.4807V20.064ZM21.3865 20.2045C21.4576 20.2789 21.5212 20.4227 21.5212 20.6952H22.1045C22.1045 20.3457 22.0245 20.028 21.8085 19.8017L21.3865 20.2045Z" fill="#3E6DEE"/>
</g>
<defs>
<clipPath id="clip0_24_245">
<rect width="28" height="29.75" fill="white"/>
</clipPath>
</defs>
</svg>
