<svg width="28" height="30" viewBox="0 0 28 30" fill="none" xmlns="http://www.w3.org/2000/svg">
<g clip-path="url(#clip0_24_262)">
<path d="M27.4285 9.82651V15.9183C27.4285 16.2431 27.2971 16.5546 27.0634 16.7842C26.8295 17.0138 26.5125 17.1429 26.1818 17.1429C25.8511 17.1429 25.534 17.0138 25.3002 16.7842C25.0663 16.5546 24.935 16.2431 24.935 15.9183V11.0204H17.4545C17.1238 11.0204 16.8067 10.8914 16.5729 10.6618C16.3391 10.4321 16.2078 10.1207 16.2078 9.79594V2.44899H2.4935V15.9183C2.4935 16.2431 2.36215 16.5546 2.12834 16.7842C1.89453 17.0138 1.57741 17.1429 1.24675 17.1429C0.916091 17.1429 0.598977 17.0138 0.365165 16.7842C0.131354 16.5546 0 16.2431 0 15.9183V2.44899C0 1.79949 0.262707 1.17658 0.730331 0.717309C1.19795 0.258036 1.83218 1.97297e-05 2.4935 1.97297e-05H17.4545C17.7862 -0.00181694 18.1053 0.124645 18.3428 0.35206L27.0545 8.92349C27.1741 9.03617 27.269 9.17171 27.3333 9.32171C27.3977 9.47177 27.4301 9.63314 27.4285 9.79594V9.82651ZM18.7013 8.57143H23.174L18.7013 4.17859V8.57143Z" fill="#E84B1A"/>
<path d="M3.66129 23.9893H2.29522V26.0736C2.29522 26.3716 2.2249 26.5976 2.08428 26.7516C1.94366 26.9057 1.7662 26.9827 1.55191 26.9827C1.32758 26.9827 1.14678 26.9073 1.0095 26.7567C0.872229 26.6027 0.803589 26.3783 0.803589 26.0837V20.4084C0.803589 20.0803 0.878926 19.846 1.02959 19.7054C1.18026 19.5647 1.41966 19.4944 1.74778 19.4944H3.66129C4.22714 19.4944 4.66241 19.5379 4.96709 19.625C5.26843 19.7087 5.52792 19.8476 5.74556 20.0418C5.96653 20.236 6.13396 20.4737 6.24779 20.755C6.36162 21.0363 6.41853 21.3527 6.41853 21.7042C6.41853 22.4542 6.1875 23.0234 5.72545 23.4118C5.26341 23.7968 4.57535 23.9893 3.66129 23.9893ZM3.29968 20.6144H2.29522V22.8644H3.29968C3.65125 22.8644 3.94421 22.8275 4.17859 22.7539C4.41631 22.6802 4.59711 22.5597 4.721 22.3923C4.84489 22.2249 4.90682 22.0056 4.90682 21.7344C4.90682 21.4096 4.8114 21.1451 4.62055 20.9408C4.40627 20.7232 3.96598 20.6144 3.29968 20.6144ZM10.9332 23.9893H9.56716V26.0736C9.56716 26.3716 9.49682 26.5976 9.35619 26.7516C9.21556 26.9057 9.03813 26.9827 8.82385 26.9827C8.5995 26.9827 8.4187 26.9073 8.28145 26.7567C8.14413 26.6027 8.0755 26.3783 8.0755 26.0837V20.4084C8.0755 20.0803 8.15082 19.846 8.3015 19.7054C8.45219 19.5647 8.69156 19.4944 9.01973 19.4944H10.9332C11.499 19.4944 11.9343 19.5379 12.239 19.625C12.5404 19.7087 12.7998 19.8476 13.0174 20.0418C13.2385 20.236 13.4058 20.4737 13.5197 20.755C13.6336 21.0363 13.6905 21.3527 13.6905 21.7042C13.6905 22.4542 13.4594 23.0234 12.9974 23.4118C12.5353 23.7968 11.8473 23.9893 10.9332 23.9893ZM10.5716 20.6144H9.56716V22.8644H10.5716C10.9232 22.8644 11.2161 22.8275 11.4505 22.7539C11.6882 22.6802 11.869 22.5597 11.9929 22.3923C12.1168 22.2249 12.1788 22.0056 12.1788 21.7344C12.1788 21.4096 12.0833 21.1451 11.8925 20.9408C11.6782 20.7232 11.2379 20.6144 10.5716 20.6144ZM20.1287 20.7249H18.5014V26.0736C18.5014 26.3817 18.4328 26.611 18.2955 26.7617C18.1582 26.909 17.9808 26.9827 17.7632 26.9827C17.5422 26.9827 17.3614 26.9073 17.2208 26.7567C17.0835 26.606 17.0148 26.3783 17.0148 26.0736V20.7249H15.3876C15.1332 20.7249 14.944 20.6696 14.8201 20.5591C14.6962 20.4453 14.6342 20.2963 14.6342 20.1121C14.6342 19.9213 14.6979 19.7706 14.8251 19.6601C14.9557 19.5496 15.1432 19.4944 15.3876 19.4944H20.1287C20.3865 19.4944 20.5773 19.5513 20.7012 19.6652C20.8285 19.779 20.8921 19.928 20.8921 20.1121C20.8921 20.2963 20.8285 20.4453 20.7012 20.5591C20.574 20.6696 20.3832 20.7249 20.1287 20.7249ZM21.9162 25.4257L23.5636 23.0201L22.1774 20.8805C22.0468 20.6729 21.948 20.4955 21.881 20.3482C21.8174 20.1975 21.7856 20.0536 21.7856 19.9163C21.7856 19.7756 21.8476 19.6501 21.9714 19.5396C22.0987 19.4258 22.2527 19.3688 22.4335 19.3688C22.6411 19.3688 22.8018 19.4308 22.9157 19.5547C23.0329 19.6752 23.1936 19.9012 23.3978 20.2327L24.5027 22.0206L25.683 20.2327C25.7801 20.082 25.8621 19.9531 25.929 19.846C25.9994 19.7388 26.0664 19.6501 26.13 19.5797C26.1936 19.5095 26.2639 19.4576 26.3409 19.4241C26.4212 19.3872 26.5133 19.3688 26.6171 19.3688C26.8046 19.3688 26.9569 19.4258 27.0741 19.5396C27.1947 19.6501 27.2549 19.7823 27.2549 19.9364C27.2549 20.1607 27.126 20.4654 26.8682 20.8504L25.4168 23.0201L26.9787 25.4257C27.1193 25.6367 27.2214 25.8125 27.2851 25.9531C27.3487 26.0904 27.3805 26.2209 27.3805 26.3448C27.3805 26.462 27.3521 26.5692 27.2951 26.6663C27.2382 26.7633 27.1578 26.8404 27.0541 26.8973C26.9502 26.9542 26.8331 26.9827 26.7025 26.9827C26.5618 26.9827 26.443 26.9525 26.3459 26.8923C26.2488 26.8353 26.1701 26.7634 26.1098 26.6763C26.0496 26.5892 25.9374 26.4202 25.7734 26.1691L24.4776 24.13L23.1015 26.2294C22.9944 26.3967 22.9173 26.5139 22.8705 26.5809C22.8269 26.6479 22.7734 26.7131 22.7097 26.7768C22.6461 26.8404 22.5708 26.8906 22.4837 26.9274C22.3967 26.9643 22.2946 26.9827 22.1774 26.9827C21.9966 26.9827 21.8459 26.9274 21.7254 26.8169C21.6082 26.7064 21.5496 26.5457 21.5496 26.3348C21.5496 26.087 21.6718 25.784 21.9162 25.4257Z" fill="#E84B1A"/>
<path d="M2.29523 23.9894V23.7036H2.00951V23.9894H2.29523ZM1.00951 26.7567L0.796209 26.9468L0.798312 26.9491L1.00951 26.7567ZM4.9671 19.625L4.88861 19.8997L4.89063 19.9003L4.9671 19.625ZM5.74557 20.0418L5.55533 20.255L5.55696 20.2564L5.74557 20.0418ZM5.72545 23.4118L5.90837 23.6313L5.90934 23.6305L5.72545 23.4118ZM2.29523 20.6144V20.3287H2.00951V20.6144H2.29523ZM2.29523 22.8644H2.00951V23.1501H2.29523V22.8644ZM4.1786 22.7539L4.09403 22.481L4.09293 22.4813L4.1786 22.7539ZM4.62056 20.9408L4.82939 20.7457L4.82415 20.7404L4.62056 20.9408ZM3.6613 23.7036H2.29523V24.2751H3.6613V23.7036ZM2.00951 23.9894V26.0736H2.58094V23.9894H2.00951ZM2.00951 26.0736C2.00951 26.3307 1.94869 26.4764 1.87329 26.559L2.29528 26.9443C2.50114 26.7188 2.58094 26.4126 2.58094 26.0736H2.00951ZM1.87329 26.559C1.78847 26.6519 1.68843 26.697 1.55192 26.697V27.2684C1.84399 27.2684 2.09886 27.1594 2.29528 26.9443L1.87329 26.559ZM1.55192 26.697C1.39896 26.697 1.29806 26.6491 1.22071 26.5643L0.798312 26.9491C0.995523 27.1655 1.25622 27.2684 1.55192 27.2684V26.697ZM1.2228 26.5666C1.14875 26.4835 1.08931 26.3379 1.08931 26.0837H0.517883C0.517883 26.4187 0.595723 26.7218 0.79622 26.9468L1.2228 26.5666ZM1.08931 26.0837V20.4084H0.517883V26.0837H1.08931ZM1.08931 20.4084C1.08931 20.1138 1.15835 19.976 1.22455 19.9142L0.834655 19.4964C0.599512 19.7159 0.517883 20.0468 0.517883 20.4084H1.08931ZM1.22455 19.9142C1.29853 19.8452 1.45113 19.7801 1.74779 19.7801V19.2087C1.3882 19.2087 1.06201 19.2843 0.834655 19.4964L1.22455 19.9142ZM1.74779 19.7801H3.6613V19.2087H1.74779V19.7801ZM3.6613 19.7801C4.21792 19.7801 4.62199 19.8235 4.88861 19.8997L5.04559 19.3503C4.70284 19.2523 4.23637 19.2087 3.6613 19.2087V19.7801ZM4.89063 19.9003C5.15291 19.9731 5.37269 20.092 5.55534 20.255L5.9358 19.8287C5.68316 19.6032 5.38397 19.4443 5.04357 19.3497L4.89063 19.9003ZM5.55696 20.2564C5.74345 20.4203 5.88528 20.6209 5.98294 20.8622L6.51266 20.6478C6.38266 20.3266 6.18963 20.0518 5.93414 19.8272L5.55696 20.2564ZM5.98294 20.8622C6.081 21.1044 6.13283 21.3836 6.13283 21.7042H6.70426C6.70426 21.3217 6.64226 20.9681 6.51266 20.6478L5.98294 20.8622ZM6.13283 21.7042C6.13283 22.3922 5.9238 22.8719 5.54163 23.1931L5.90934 23.6305C6.45128 23.175 6.70426 22.5163 6.70426 21.7042H6.13283ZM5.54256 23.1923C5.15265 23.5172 4.5418 23.7036 3.6613 23.7036V24.2751C4.60892 24.2751 5.37419 24.0764 5.90837 23.6313L5.54256 23.1923ZM3.29969 20.3287H2.29523V20.9001H3.29969V20.3287ZM2.00951 20.6144V22.8644H2.58094V20.6144H2.00951ZM2.29523 23.1501H3.29969V22.5787H2.29523V23.1501ZM3.29969 23.1501C3.6689 23.1501 3.99305 23.1117 4.26426 23.0264L4.09293 22.4813C3.89539 22.5434 3.63361 22.5787 3.29969 22.5787V23.1501ZM4.26316 23.0268C4.54734 22.9387 4.78399 22.7875 4.95068 22.5622L4.49134 22.2223C4.41026 22.3319 4.2853 22.4217 4.09403 22.481L4.26316 23.0268ZM4.95068 22.5622C5.1206 22.3326 5.19255 22.0483 5.19255 21.7344H4.62112C4.62112 21.9628 4.56918 22.1171 4.49134 22.2223L4.95068 22.5622ZM5.19255 21.7344C5.19255 21.3497 5.07756 21.0114 4.82932 20.7458L4.4118 21.1359C4.54526 21.2787 4.62112 21.4695 4.62112 21.7344H5.19255ZM4.82415 20.7404C4.66616 20.5799 4.44635 20.48 4.19818 20.4186C3.94781 20.3567 3.64623 20.3287 3.29969 20.3287V20.9001C3.61945 20.9001 3.87116 20.9264 4.06108 20.9734C4.2532 21.0208 4.36068 21.0841 4.41697 21.1413L4.82415 20.7404ZM9.56717 23.9894V23.7036H9.28146V23.9894H9.56717ZM8.28146 26.7567L8.06814 26.9468L8.07026 26.9491L8.28146 26.7567ZM12.239 19.625L12.1605 19.8997L12.1625 19.9003L12.239 19.625ZM13.0175 20.0418L12.8272 20.255L12.8289 20.2564L13.0175 20.0418ZM12.9974 23.4118L13.1803 23.6313L13.1812 23.6305L12.9974 23.4118ZM9.56717 20.6144V20.3287H9.28146V20.6144H9.56717ZM9.56717 22.8644H9.28146V23.1501H9.56717V22.8644ZM11.4505 22.7539L11.366 22.481L11.3648 22.4813L11.4505 22.7539ZM11.8925 20.9408L12.1013 20.7457L12.0961 20.7404L11.8925 20.9408ZM10.9332 23.7036H9.56717V24.2751H10.9332V23.7036ZM9.28146 23.9894V26.0736H9.85288V23.9894H9.28146ZM9.28146 26.0736C9.28146 26.3307 9.2206 26.4764 9.14523 26.559L9.56723 26.9443C9.77306 26.7188 9.85288 26.4126 9.85288 26.0736H9.28146ZM9.14523 26.559C9.06037 26.6519 8.96037 26.697 8.82386 26.697V27.2684C9.11591 27.2684 9.37077 27.1594 9.56723 26.9443L9.14523 26.559ZM8.82386 26.697C8.67088 26.697 8.56997 26.6491 8.49265 26.5643L8.07026 26.9491C8.26746 27.1655 8.52814 27.2684 8.82386 27.2684V26.697ZM8.49471 26.5666C8.42065 26.4835 8.36123 26.3379 8.36123 26.0837H7.7898C7.7898 26.4187 7.86763 26.7218 8.06814 26.9468L8.49471 26.5666ZM8.36123 26.0837V20.4084H7.7898V26.0837H8.36123ZM8.36123 20.4084C8.36123 20.1138 8.43026 19.976 8.49648 19.9142L8.1066 19.4964C7.87145 19.7159 7.7898 20.0468 7.7898 20.4084H8.36123ZM8.49648 19.9142C8.57043 19.8452 8.72305 19.7801 9.01974 19.7801V19.2087C8.66014 19.2087 8.33391 19.2843 8.1066 19.4964L8.49648 19.9142ZM9.01974 19.7801H10.9332V19.2087H9.01974V19.7801ZM10.9332 19.7801C11.4899 19.7801 11.8939 19.8235 12.1605 19.8997L12.3175 19.3503C11.9748 19.2523 11.5083 19.2087 10.9332 19.2087V19.7801ZM12.1625 19.9003C12.4248 19.9731 12.6446 20.092 12.8273 20.255L13.2077 19.8287C12.9551 19.6032 12.6559 19.4443 12.3155 19.3497L12.1625 19.9003ZM12.8289 20.2564C13.0153 20.4203 13.1572 20.6209 13.2549 20.8622L13.7845 20.6478C13.6545 20.3266 13.4616 20.0518 13.2061 19.8272L12.8289 20.2564ZM13.2549 20.8622C13.3529 21.1044 13.4048 21.3836 13.4048 21.7042H13.9762C13.9762 21.3217 13.9142 20.9681 13.7845 20.6478L13.2549 20.8622ZM13.4048 21.7042C13.4048 22.3922 13.1957 22.8719 12.8136 23.1931L13.1812 23.6305C13.7232 23.175 13.9762 22.5163 13.9762 21.7042H13.4048ZM12.8145 23.1923C12.4245 23.5172 11.8137 23.7036 10.9332 23.7036V24.2751C11.8808 24.2751 12.6461 24.0764 13.1803 23.6313L12.8145 23.1923ZM10.5716 20.3287H9.56717V20.9001H10.5716V20.3287ZM9.28146 20.6144V22.8644H9.85288V20.6144H9.28146ZM9.56717 23.1501H10.5716V22.5787H9.56717V23.1501ZM10.5716 23.1501C10.9408 23.1501 11.265 23.1117 11.5362 23.0264L11.3648 22.4813C11.1673 22.5434 10.9055 22.5787 10.5716 22.5787V23.1501ZM11.5351 23.0268C11.8193 22.9387 12.0559 22.7875 12.2226 22.5622L11.7633 22.2223C11.6822 22.3319 11.5572 22.4217 11.366 22.481L11.5351 23.0268ZM12.2226 22.5622C12.3925 22.3326 12.4645 22.0483 12.4645 21.7344H11.8931C11.8931 21.9628 11.8411 22.1171 11.7633 22.2223L12.2226 22.5622ZM12.4645 21.7344C12.4645 21.3497 12.3495 21.0114 12.1012 20.7458L11.6837 21.1359C11.8172 21.2787 11.8931 21.4695 11.8931 21.7344H12.4645ZM12.0961 20.7404C11.9381 20.5799 11.7183 20.48 11.4701 20.4186C11.2197 20.3567 10.9181 20.3287 10.5716 20.3287V20.9001C10.8914 20.9001 11.1431 20.9264 11.333 20.9734C11.5251 21.0208 11.6326 21.0841 11.6889 21.1413L12.0961 20.7404ZM18.5015 20.7249V20.4392H18.2157V20.7249H18.5015ZM18.2955 26.7617L18.5046 26.9565L18.5067 26.9542L18.2955 26.7617ZM17.2208 26.7567L17.0096 26.9491L17.0119 26.9516L17.2208 26.7567ZM17.0148 20.7249H17.3005V20.4392H17.0148V20.7249ZM14.8201 20.5591L14.6268 20.7695L14.6299 20.7724L14.8201 20.5591ZM14.8251 19.6602L14.6405 19.442L14.6378 19.4444L14.8251 19.6602ZM20.7012 19.6652L20.5079 19.8756L20.5107 19.8781L20.7012 19.6652ZM20.7012 20.5591L20.8886 20.7749L20.8917 20.772L20.7012 20.5591ZM20.1287 20.4392H18.5015V21.0106H20.1287V20.4392ZM18.2157 20.7249V26.0736H18.7872V20.7249H18.2157ZM18.2157 26.0736C18.2157 26.3459 18.1543 26.4926 18.0844 26.5693L18.5067 26.9542C18.7114 26.7295 18.7872 26.4175 18.7872 26.0736H18.2157ZM18.0865 26.5669C18.008 26.6512 17.9087 26.697 17.7632 26.697V27.2684C18.0529 27.2684 18.3085 27.1668 18.5046 26.9565L18.0865 26.5669ZM17.7632 26.697C17.615 26.697 17.512 26.65 17.4296 26.5618L17.0119 26.9516C17.2108 27.1647 17.4694 27.2684 17.7632 27.2684V26.697ZM17.432 26.5643C17.3616 26.487 17.3005 26.3415 17.3005 26.0736H16.7291C16.7291 26.4151 16.8053 26.725 17.0096 26.9491L17.432 26.5643ZM17.3005 26.0736V20.7249H16.7291V26.0736H17.3005ZM17.0148 20.4392H15.3876V21.0106H17.0148V20.4392ZM15.3876 20.4392C15.1673 20.4392 15.06 20.3903 15.0103 20.3459L14.6299 20.7724C14.8279 20.949 15.099 21.0106 15.3876 21.0106V20.4392ZM15.0134 20.3488C14.9544 20.2945 14.92 20.2248 14.92 20.1122H14.3485C14.3485 20.3678 14.4381 20.5961 14.6268 20.7695L15.0134 20.3488ZM14.92 20.1122C14.92 19.9918 14.9564 19.9246 15.0125 19.8759L14.6378 19.4444C14.4394 19.6167 14.3485 19.8508 14.3485 20.1122H14.92ZM15.0097 19.8783C15.0704 19.8268 15.1823 19.7801 15.3876 19.7801V19.2087C15.1041 19.2087 14.8409 19.2724 14.6405 19.442L15.0097 19.8783ZM15.3876 19.7801H20.1287V19.2087H15.3876V19.7801ZM20.1287 19.7801C20.3518 19.7801 20.4588 19.8304 20.5079 19.8755L20.8945 19.4548C20.696 19.2723 20.4212 19.2087 20.1287 19.2087V19.7801ZM20.5107 19.8781C20.5722 19.9331 20.6064 20.0021 20.6064 20.1122H21.1778C21.1778 19.8539 21.0847 19.6249 20.8917 19.4522L20.5107 19.8781ZM20.6064 20.1122C20.6064 20.2222 20.5722 20.2912 20.5107 20.3462L20.8917 20.772C21.0847 20.5994 21.1778 20.3704 21.1778 20.1122H20.6064ZM20.5139 20.3434C20.4595 20.3906 20.3482 20.4392 20.1287 20.4392V21.0106C20.4181 21.0106 20.6885 20.9486 20.8886 20.7748L20.5139 20.3434ZM21.9163 25.4258L21.6805 25.2643L21.6802 25.2647L21.9163 25.4258ZM23.5636 23.0201L23.7993 23.1815L23.9068 23.0244L23.8033 22.8647L23.5636 23.0201ZM22.1774 20.8806L21.9355 21.0327L21.9376 21.0359L22.1774 20.8806ZM21.8811 20.3482L21.6177 20.4594L21.621 20.4664L21.8811 20.3482ZM21.9715 19.5396L22.1616 19.7528L22.162 19.7526L21.9715 19.5396ZM22.9157 19.5547L22.7052 19.748L22.7108 19.7538L22.9157 19.5547ZM23.3978 20.2327L23.1546 20.3826L23.1548 20.3829L23.3978 20.2327ZM24.5027 22.0206L24.2597 22.1708L24.4948 22.5513L24.7412 22.178L24.5027 22.0206ZM25.683 20.2327L25.9215 20.3901L25.9231 20.3875L25.683 20.2327ZM25.9291 19.846L25.6901 19.6892L25.6868 19.6946L25.9291 19.846ZM26.3409 19.4241L26.4548 19.6862L26.46 19.6838L26.3409 19.4241ZM27.0741 19.5396L26.8751 19.7446L26.878 19.7474L26.8811 19.7502L27.0741 19.5396ZM26.8683 20.8504L26.6308 20.6915L26.6308 20.6916L26.8683 20.8504ZM25.4168 23.0201L25.1793 22.8612L25.0746 23.0177L25.1772 23.1756L25.4168 23.0201ZM26.9787 25.4258L26.7391 25.5814L26.741 25.5843L26.9787 25.4258ZM27.2851 25.9531L27.0248 26.0709L27.0259 26.0732L27.2851 25.9531ZM27.2951 26.6663L27.0487 26.5218L27.2951 26.6663ZM26.3459 26.8923L26.4967 26.6495L26.4904 26.6458L26.3459 26.8923ZM25.7734 26.1691L25.5322 26.3223L25.5342 26.3254L25.7734 26.1691ZM24.4776 24.13L24.7188 23.9768L24.4813 23.6031L24.2387 23.9734L24.4776 24.13ZM23.1015 26.2294L22.8625 26.0727L22.8608 26.0753L23.1015 26.2294ZM22.8705 26.5809L22.6364 26.4171L22.6336 26.4211L22.6309 26.4252L22.8705 26.5809ZM21.7254 26.817L21.5293 27.0248L21.5323 27.0276L21.7254 26.817ZM22.152 25.5872L23.7993 23.1815L23.3278 22.8587L21.6805 25.2643L22.152 25.5872ZM23.8033 22.8647L22.4172 20.7252L21.9376 21.0359L23.3237 23.1754L23.8033 22.8647ZM22.4192 20.7284C22.2924 20.5268 22.2009 20.3613 22.1412 20.23L21.621 20.4664C21.6952 20.6298 21.8012 20.8192 21.9356 21.0327L22.4192 20.7284ZM22.1443 20.2371C22.0927 20.115 22.0713 20.0088 22.0713 19.9163H21.4999C21.4999 20.0983 21.5422 20.2801 21.6179 20.4594L22.1443 20.2371ZM22.0713 19.9163C22.0713 19.8719 22.0865 19.8198 22.1616 19.7528L21.7813 19.3264C21.6087 19.4804 21.4999 19.6794 21.4999 19.9163H22.0713ZM22.162 19.7526C22.2336 19.6885 22.3185 19.6546 22.4335 19.6546V19.0831C22.1869 19.0831 21.9639 19.163 21.7809 19.3267L22.162 19.7526ZM22.4335 19.6546C22.5813 19.6546 22.6578 19.6963 22.7053 19.748L23.126 19.3614C22.9459 19.1652 22.701 19.0831 22.4335 19.0831V19.6546ZM22.7108 19.7538C22.8041 19.8498 22.9508 20.0518 23.1546 20.3826L23.6411 20.0828C23.4364 19.7506 23.2616 19.5006 23.1205 19.3555L22.7108 19.7538ZM23.1548 20.3829L24.2597 22.1708L24.7458 21.8704L23.6409 20.0825L23.1548 20.3829ZM24.7412 22.178L25.9214 20.3901L25.4445 20.0753L24.2643 21.8632L24.7412 22.178ZM25.9231 20.3875C26.0207 20.2361 26.1035 20.106 26.1713 19.9974L25.6868 19.6946C25.6207 19.8002 25.5395 19.9279 25.4428 20.0779L25.9231 20.3875ZM26.1679 20.0027C26.2328 19.9039 26.2908 19.8278 26.3419 19.7715L25.9181 19.3881C25.8419 19.4724 25.766 19.5737 25.6902 19.6892L26.1679 20.0027ZM26.3419 19.7715C26.3817 19.7274 26.4196 19.7014 26.4548 19.6861L26.227 19.1621C26.1081 19.2138 26.0055 19.2915 25.9181 19.3881L26.3419 19.7715ZM26.46 19.6838C26.497 19.6668 26.5473 19.6546 26.6171 19.6546V19.0831C26.4793 19.0831 26.3455 19.1077 26.2219 19.1644L26.46 19.6838ZM26.6171 19.6546C26.7421 19.6546 26.8192 19.6902 26.8751 19.7446L27.2732 19.3347C27.0948 19.1613 26.8671 19.0831 26.6171 19.0831V19.6546ZM26.8811 19.7502C26.9467 19.8103 26.9692 19.8678 26.9692 19.9364H27.5407C27.5407 19.6968 27.4427 19.4899 27.2672 19.329L26.8811 19.7502ZM26.9692 19.9364C26.9692 20.0695 26.8844 20.3127 26.6308 20.6915L27.1056 21.0094C27.3676 20.6181 27.5407 20.2519 27.5407 19.9364H26.9692ZM26.6308 20.6916L25.1793 22.8612L25.6543 23.179L27.1057 21.0093L26.6308 20.6916ZM25.1772 23.1756L26.7391 25.5814L27.2184 25.2702L25.6564 22.8645L25.1772 23.1756ZM26.741 25.5843C26.8777 25.7894 26.9703 25.9505 27.0248 26.0709L27.5454 25.8354C27.4727 25.6745 27.361 25.484 27.2165 25.2673L26.741 25.5843ZM27.0259 26.0732C27.0758 26.181 27.0948 26.2706 27.0948 26.3448H27.6663C27.6663 26.1714 27.6216 25.9998 27.5443 25.833L27.0259 26.0732ZM27.0948 26.3448C27.0948 26.4134 27.0788 26.4704 27.0487 26.5218L27.5416 26.8108C27.6253 26.668 27.6663 26.5107 27.6663 26.3448H27.0948ZM27.0487 26.5218C27.0192 26.572 26.9776 26.6134 26.9167 26.6468L27.1915 27.1478C27.3381 27.0674 27.4572 26.9548 27.5416 26.8108L27.0487 26.5218ZM26.9167 26.6468C26.8592 26.6783 26.7901 26.697 26.7025 26.697V27.2684C26.876 27.2684 27.0413 27.2302 27.1915 27.1478L26.9167 26.6468ZM26.7025 26.697C26.6029 26.697 26.5391 26.6759 26.4966 26.6495L26.1952 27.135C26.347 27.2292 26.5209 27.2684 26.7025 27.2684V26.697ZM26.4904 26.6458C26.4269 26.6086 26.3799 26.5644 26.3448 26.5137L25.8749 26.839C25.9604 26.9623 26.0708 27.0622 26.2015 27.1388L26.4904 26.6458ZM26.3448 26.5137C26.2871 26.4303 26.1769 26.2643 26.0125 26.0128L25.5342 26.3254C25.698 26.576 25.8122 26.7483 25.8749 26.839L26.3448 26.5137ZM26.0145 26.0158L24.7188 23.9768L24.2365 24.2832L25.5323 26.3223L26.0145 26.0158ZM24.2387 23.9734L22.8625 26.0727L23.3404 26.386L24.7165 24.2866L24.2387 23.9734ZM22.8608 26.0753C22.7537 26.2428 22.6795 26.3555 22.6364 26.4171L23.1045 26.7447C23.1552 26.6724 23.235 26.5507 23.3421 26.3834L22.8608 26.0753ZM22.6309 26.4252C22.5995 26.4735 22.559 26.5235 22.5077 26.5747L22.9118 26.9788C22.9877 26.9028 23.0544 26.8222 23.11 26.7366L22.6309 26.4252ZM22.5077 26.5747C22.4715 26.611 22.4273 26.6411 22.3724 26.6643L22.5951 27.1906C22.7143 27.1402 22.8208 27.0698 22.9118 26.9788L22.5077 26.5747ZM22.3724 26.6643C22.328 26.6831 22.2652 26.697 22.1774 26.697V27.2684C22.3239 27.2684 22.4655 27.2454 22.5951 27.1906L22.3724 26.6643ZM22.1774 26.697C22.0599 26.697 21.9805 26.6632 21.9184 26.6063L21.5323 27.0276C21.7113 27.1916 21.9333 27.2684 22.1774 27.2684V26.697ZM21.9214 26.6091C21.8777 26.5679 21.8353 26.4926 21.8353 26.3348H21.2639C21.2639 26.5988 21.3387 26.845 21.5294 27.0248L21.9214 26.6091ZM21.8353 26.3348C21.8353 26.1734 21.9188 25.929 22.1523 25.5868L21.6802 25.2647C21.4248 25.6391 21.2639 26.0007 21.2639 26.3348H21.8353Z" fill="#E84B1A"/>
</g>
<defs>
<clipPath id="clip0_24_262">
<rect width="28" height="29.1429" fill="white"/>
</clipPath>
</defs>
</svg>
